M48
;DRILL file {Pcbnew (2013-may-18)-stable} date Tue Apr 15 11:28:35 2014
;FORMAT={-:-/ absolute / inch / decimal}
FMAT,2
INCH,TZ
T1C0.039
T2C0.039
T3C0.060
%
G90
G05
M72
T1
X3.8Y-2.95
X3.8Y-3.05
X3.8Y-3.15
X3.8Y-3.25
X3.8Y-3.35
X3.8Y-3.45
X5.7Y-2.95
X5.7Y-3.05
X5.7Y-3.15
X5.7Y-3.25
X5.7Y-3.35
X5.7Y-3.45
T2
X4.35Y-2.8
X4.35Y-2.9
X4.35Y-3.
X4.35Y-3.1
X4.35Y-3.2
X4.35Y-3.3
X4.35Y-3.4
X4.35Y-3.5
X4.35Y-3.6
X4.35Y-3.7
X4.35Y-3.8
X4.35Y-3.9
X4.35Y-4.
X4.525Y-4.025
X4.625Y-4.025
X4.725Y-4.025
X4.825Y-4.025
X4.925Y-4.025
X5.025Y-4.025
X5.15Y-2.8
X5.15Y-2.9
X5.15Y-3.
X5.15Y-3.1
X5.15Y-3.2
X5.15Y-3.3
X5.15Y-3.4
X5.15Y-3.5
X5.15Y-3.6
X5.15Y-3.7
X5.15Y-3.8
X5.15Y-3.9
T3
X5.4Y-3.95
X5.6Y-3.95
T0
M30
