<?xml version="1.0" standalone="no"?>
 <!DOCTYPE svg PUBLIC "-//W3C//DTD SVG 1.1//EN" 
 "http://www.w3.org/Graphics/SVG/1.1/DTD/svg11.dtd"> 
<svg xmlns="http://www.w3.org/2000/svg" version="1.1" 
    width="29.7002cm" height="21.0007cm" viewBox="0 0 116930 82680 ">
<title>SVG Picture created as dual-rgbw-actor-merkur-B_Mask.svg date 2014/04/15 18:53:05 </title>
  <desc>Picture generated by PCBNEW </desc>
<g style="fill:#000000; fill-opacity:1;stroke:#000000; stroke-opacity:1;
stroke-linecap:round; stroke-linejoin:round; "
 transform="translate(0 0) scale(1 1)">
</g>
<g style="fill:#000000; fill-opacity:0.0; 
stroke:#000000; stroke-width:39.3701; stroke-opacity:1; 
stroke-linecap:round; stroke-linejoin:round;">
<path d="M4000 4000
L112930 4000
L112930 78680
L4000 78680
L4000 4000
" />
<path d="M4700 4700
L112230 4700
L112230 77980
L4700 77980
L4700 4700
" />
<path d="M25780 4000
L25780 4700
" />
<path d="M15032 4552
L14747 4552
" />
<path d="M14890 4552
L14890 4052
L14842 4123
L14794 4171
L14747 4195
" />
<path d="M25780 78680
L25780 77980
" />
<path d="M15032 78532
L14747 78532
" />
<path d="M14890 78532
L14890 78032
L14842 78103
L14794 78151
L14747 78175
" />
<path d="M47560 4000
L47560 4700
" />
<path d="M36527 4100
L36550 4076
L36598 4052
L36717 4052
L36765 4076
L36789 4100
L36812 4147
L36812 4195
L36789 4266
L36503 4552
L36812 4552
" />
<path d="M47560 78680
L47560 77980
" />
<path d="M36527 78080
L36550 78056
L36598 78032
L36717 78032
L36765 78056
L36789 78080
L36812 78127
L36812 78175
L36789 78246
L36503 78532
L36812 78532
" />
<path d="M69340 4000
L69340 4700
" />
<path d="M58283 4052
L58592 4052
L58426 4242
L58497 4242
L58545 4266
L58569 4290
L58592 4338
L58592 4457
L58569 4504
L58545 4528
L58497 4552
L58354 4552
L58307 4528
L58283 4504
" />
<path d="M69340 78680
L69340 77980
" />
<path d="M58283 78032
L58592 78032
L58426 78222
L58497 78222
L58545 78246
L58569 78270
L58592 78318
L58592 78437
L58569 78484
L58545 78508
L58497 78532
L58354 78532
L58307 78508
L58283 78484
" />
<path d="M91120 4000
L91120 4700
" />
<path d="M80325 4219
L80325 4552
" />
<path d="M80206 4028
L80087 4385
L80396 4385
" />
<path d="M91120 78680
L91120 77980
" />
<path d="M80325 78199
L80325 78532
" />
<path d="M80206 78008
L80087 78365
L80396 78365
" />
<path d="M102129 4052
L101890 4052
L101867 4290
L101890 4266
L101938 4242
L102057 4242
L102105 4266
L102129 4290
L102152 4338
L102152 4457
L102129 4504
L102105 4528
L102057 4552
L101938 4552
L101890 4528
L101867 4504
" />
<path d="M102129 78032
L101890 78032
L101867 78270
L101890 78246
L101938 78222
L102057 78222
L102105 78246
L102129 78270
L102152 78318
L102152 78437
L102129 78484
L102105 78508
L102057 78532
L101938 78532
L101890 78508
L101867 78484
" />
<path d="M4000 28890
L4700 28890
" />
<path d="M4230 16509
L4469 16509
" />
<path d="M4183 16652
L4350 16152
L4516 16652
" />
<path d="M112930 28890
L112230 28890
" />
<path d="M112460 16509
L112699 16509
" />
<path d="M112413 16652
L112580 16152
L112746 16652
" />
<path d="M4000 53780
L4700 53780
" />
<path d="M4385 41280
L4457 41304
L4480 41328
L4504 41375
L4504 41447
L4480 41494
L4457 41518
L4409 41542
L4219 41542
L4219 41042
L4385 41042
L4433 41066
L4457 41090
L4480 41137
L4480 41185
L4457 41232
L4433 41256
L4385 41280
L4219 41280
" />
<path d="M112930 53780
L112230 53780
" />
<path d="M112615 41280
L112687 41304
L112710 41328
L112734 41375
L112734 41447
L112710 41494
L112687 41518
L112639 41542
L112449 41542
L112449 41042
L112615 41042
L112663 41066
L112687 41090
L112710 41137
L112710 41185
L112687 41232
L112663 41256
L112615 41280
L112449 41280
" />
<path d="M4504 66384
L4480 66408
L4409 66432
L4361 66432
L4290 66408
L4242 66360
L4219 66313
L4195 66218
L4195 66146
L4219 66051
L4242 66003
L4290 65956
L4361 65932
L4409 65932
L4480 65956
L4504 65980
" />
<path d="M112734 66384
L112710 66408
L112639 66432
L112591 66432
L112520 66408
L112472 66360
L112449 66313
L112425 66218
L112425 66146
L112449 66051
L112472 66003
L112520 65956
L112591 65932
L112639 65932
L112710 65956
L112734 65980
" />
<path d="M79380 76422
L79455 75822
L79597 75822
L79680 75851
L79730 75908
L79751 75965
L79765 76080
L79755 76165
L79712 76280
L79676 76337
L79612 76394
L79522 76422
L79380 76422
" />
<path d="M80237 76422
L80276 76108
L80255 76051
L80201 76022
L80087 76022
L80026 76051
" />
<path d="M80240 76394
L80180 76422
L80037 76422
L79983 76394
L79962 76337
L79969 76280
L80005 76222
L80065 76194
L80208 76194
L80269 76165
" />
<path d="M80487 76022
L80715 76022
" />
<path d="M80597 75822
L80533 76337
L80555 76394
L80608 76422
L80665 76422
" />
<path d="M81097 76394
L81037 76422
L80922 76422
L80869 76394
L80847 76337
L80876 76108
L80912 76051
L80972 76022
L81087 76022
L81140 76051
L81162 76108
L81155 76165
L80862 76222
" />
<path d="M81387 76365
L81412 76394
L81380 76422
L81355 76394
L81387 76365
L81380 76422
" />
<path d="M81426 76051
L81451 76080
L81419 76108
L81394 76080
L81426 76051
L81419 76108
" />
<path d="M82437 76422
L82094 76422
" />
<path d="M82265 76422
L82340 75822
L82272 75908
L82208 75965
L82147 75994
" />
<path d="M83055 75822
L82769 75822
L82705 76108
L82737 76080
L82797 76051
L82940 76051
L82994 76080
L83019 76108
L83040 76165
L83022 76308
L82987 76365
L82955 76394
L82894 76422
L82751 76422
L82697 76394
L82672 76365
" />
<path d="M83980 76422
L84019 76108
L83997 76051
L83944 76022
L83830 76022
L83769 76051
" />
<path d="M83983 76394
L83922 76422
L83780 76422
L83726 76394
L83705 76337
L83712 76280
L83747 76222
L83808 76194
L83951 76194
L84012 76165
" />
<path d="M84315 76022
L84240 76622
" />
<path d="M84312 76051
L84372 76022
L84487 76022
L84540 76051
L84565 76080
L84587 76137
L84565 76308
L84530 76365
L84497 76394
L84437 76422
L84322 76422
L84269 76394
" />
<path d="M84808 76422
L84858 76022
" />
<path d="M84844 76137
L84880 76080
L84912 76051
L84972 76022
L85030 76022
" />
<path d="M85676 75880
L85708 75851
L85769 75822
L85912 75822
L85965 75851
L85990 75880
L86012 75937
L86005 75994
L85965 76080
L85580 76422
L85951 76422
" />
<path d="M86397 75822
L86455 75822
L86508 75851
L86533 75880
L86555 75937
L86569 76051
L86551 76194
L86508 76308
L86472 76365
L86440 76394
L86380 76422
L86322 76422
L86269 76394
L86244 76365
L86222 76308
L86208 76194
L86226 76051
L86269 75937
L86305 75880
L86337 75851
L86397 75822
" />
<path d="M87094 76422
L86751 76422
" />
<path d="M86922 76422
L86997 75822
L86930 75908
L86865 75965
L86805 75994
" />
<path d="M87658 76022
L87608 76422
" />
<path d="M87544 75794
L87347 76222
L87719 76222
" />
<path d="M70972 77622
L70972 77022
" />
<path d="M71315 77622
L71058 77280
" />
<path d="M71315 77022
L70972 77365
" />
<path d="M71572 77622
L71572 77222
" />
<path d="M71572 77022
L71544 77051
L71572 77080
L71601 77051
L71572 77022
L71572 77080
" />
<path d="M72201 77565
L72172 77594
L72087 77622
L72030 77622
L71944 77594
L71887 77537
L71858 77480
L71830 77365
L71830 77280
L71858 77165
L71887 77108
L71944 77051
L72030 77022
L72087 77022
L72172 77051
L72201 77080
" />
<path d="M72715 77622
L72715 77308
L72687 77251
L72630 77222
L72515 77222
L72458 77251
" />
<path d="M72715 77594
L72658 77622
L72515 77622
L72458 77594
L72430 77537
L72430 77480
L72458 77422
L72515 77394
L72658 77394
L72715 77365
" />
<path d="M73258 77622
L73258 77022
" />
<path d="M73258 77594
L73201 77622
L73087 77622
L73030 77594
L73001 77565
L72972 77508
L72972 77337
L73001 77280
L73030 77251
L73087 77222
L73201 77222
L73258 77251
" />
<path d="M74001 77308
L74201 77308
" />
<path d="M74287 77622
L74001 77622
L74001 77022
L74287 77022
" />
<path d="M74544 77565
L74572 77594
L74544 77622
L74515 77594
L74544 77565
L74544 77622
" />
<path d="M74829 77622
L74829 77022
L74972 77022
L75058 77051
L75115 77108
L75144 77165
L75172 77280
L75172 77365
L75144 77480
L75115 77537
L75058 77594
L74972 77622
L74829 77622
" />
<path d="M75429 77565
L75458 77594
L75429 77622
L75401 77594
L75429 77565
L75429 77622
" />
<path d="M75687 77451
L75972 77451
" />
<path d="M75629 77622
L75829 77022
L76029 77622
" />
<path d="M76229 77565
L76258 77594
L76229 77622
L76201 77594
L76229 77565
L76229 77622
" />
<path d="M104522 76422
L104358 76137
" />
<path d="M104180 76422
L104255 75822
L104483 75822
L104537 75851
L104562 75880
L104583 75937
L104572 76022
L104537 76080
L104505 76108
L104444 76137
L104215 76137
" />
<path d="M105012 76394
L104951 76422
L104837 76422
L104783 76394
L104762 76337
L104790 76108
L104826 76051
L104887 76022
L105001 76022
L105055 76051
L105076 76108
L105069 76165
L104776 76222
" />
<path d="M105287 76022
L105380 76422
L105572 76022
" />
<path d="M105758 76365
L105783 76394
L105751 76422
L105726 76394
L105758 76365
L105751 76422
" />
<path d="M105797 76051
L105822 76080
L105790 76108
L105765 76080
L105797 76051
L105790 76108
" />
<path d="M70944 76394
L71030 76422
L71172 76422
L71230 76394
L71258 76365
L71287 76308
L71287 76251
L71258 76194
L71230 76165
L71172 76137
L71058 76108
L71001 76080
L70972 76051
L70944 75994
L70944 75937
L70972 75880
L71001 75851
L71058 75822
L71201 75822
L71287 75851
" />
<path d="M71544 76422
L71544 76022
" />
<path d="M71544 75822
L71515 75851
L71544 75880
L71572 75851
L71544 75822
L71544 75880
" />
<path d="M71772 76022
L72087 76022
L71772 76422
L72087 76422
" />
<path d="M72544 76394
L72487 76422
L72372 76422
L72315 76394
L72287 76337
L72287 76108
L72315 76051
L72372 76022
L72487 76022
L72544 76051
L72572 76108
L72572 76165
L72287 76222
" />
<path d="M72830 76365
L72858 76394
L72830 76422
L72801 76394
L72830 76365
L72830 76422
" />
<path d="M72830 76051
L72858 76080
L72830 76108
L72801 76080
L72830 76051
L72830 76108
" />
<path d="M73544 76251
L73830 76251
" />
<path d="M73487 76422
L73687 75822
L73887 76422
" />
<path d="M74344 76022
L74344 76422
" />
<path d="M74201 75794
L74058 76222
L74430 76222
" />
<path d="M104172 77622
L104172 77022
" />
<path d="M104715 77622
L104715 77022
" />
<path d="M104715 77594
L104658 77622
L104544 77622
L104487 77594
L104458 77565
L104430 77508
L104430 77337
L104458 77280
L104487 77251
L104544 77222
L104658 77222
L104715 77251
" />
<path d="M105001 77565
L105030 77594
L105001 77622
L104972 77594
L105001 77565
L105001 77622
" />
<path d="M105001 77251
L105030 77280
L105001 77308
L104972 77280
L105001 77251
L105001 77308
" />
<path d="M106058 77622
L105715 77622
" />
<path d="M105887 77622
L105887 77022
L105829 77108
L105772 77165
L105715 77194
" />
<path d="M106744 76994
L106230 77765
" />
<path d="M107258 77622
L106915 77622
" />
<path d="M107087 77622
L107087 77022
L107029 77108
L106972 77165
L106915 77194
" />
<path d="M70969 74622
L71312 74622
" />
<path d="M71065 75222
L71140 74622
" />
<path d="M71437 75222
L71487 74822
" />
<path d="M71512 74622
L71480 74651
L71505 74680
L71537 74651
L71512 74622
L71505 74680
" />
<path d="M71687 74822
L71915 74822
" />
<path d="M71797 74622
L71733 75137
L71755 75194
L71808 75222
L71865 75222
" />
<path d="M72151 75222
L72097 75194
L72076 75137
L72140 74622
" />
<path d="M72612 75194
L72551 75222
L72437 75222
L72383 75194
L72362 75137
L72390 74908
L72426 74851
L72487 74822
L72601 74822
L72655 74851
L72676 74908
L72669 74965
L72376 75022
" />
<path d="M72901 75165
L72926 75194
L72894 75222
L72869 75194
L72901 75165
L72894 75222
" />
<path d="M72940 74851
L72965 74880
L72933 74908
L72908 74880
L72940 74851
L72933 74908
" />
<path d="M71172 72508
L70972 72508
" />
<path d="M70972 72822
L70972 72222
L71258 72222
" />
<path d="M71487 72822
L71487 72422
" />
<path d="M71487 72222
L71458 72251
L71487 72280
L71515 72251
L71487 72222
L71487 72280
" />
<path d="M71858 72822
L71801 72794
L71772 72737
L71772 72222
" />
<path d="M72315 72794
L72258 72822
L72144 72822
L72087 72794
L72058 72737
L72058 72508
L72087 72451
L72144 72422
L72258 72422
L72315 72451
L72344 72508
L72344 72565
L72058 72622
" />
<path d="M72601 72765
L72630 72794
L72601 72822
L72572 72794
L72601 72765
L72601 72822
" />
<path d="M72601 72451
L72630 72480
L72601 72508
L72572 72480
L72601 72451
L72601 72508
" />
<path d="M73601 72822
L73601 72222
" />
<path d="M73601 72794
L73544 72822
L73430 72822
L73372 72794
L73344 72765
L73315 72708
L73315 72537
L73344 72480
L73372 72451
L73430 72422
L73544 72422
L73601 72451
" />
<path d="M74144 72422
L74144 72822
" />
<path d="M73887 72422
L73887 72737
L73915 72794
L73972 72822
L74058 72822
L74115 72794
L74144 72765
" />
<path d="M74687 72822
L74687 72508
L74658 72451
L74601 72422
L74487 72422
L74430 72451
" />
<path d="M74687 72794
L74630 72822
L74487 72822
L74430 72794
L74401 72737
L74401 72680
L74430 72622
L74487 72594
L74630 72594
L74687 72565
" />
<path d="M75058 72822
L75001 72794
L74972 72737
L74972 72222
" />
<path d="M75287 72594
L75744 72594
" />
<path d="M76030 72822
L76030 72422
" />
<path d="M76030 72537
L76058 72480
L76087 72451
L76144 72422
L76201 72422
" />
<path d="M76658 72422
L76658 72908
L76630 72965
L76601 72994
L76544 73022
L76458 73022
L76401 72994
" />
<path d="M76658 72794
L76601 72822
L76487 72822
L76430 72794
L76401 72765
L76372 72708
L76372 72537
L76401 72480
L76430 72451
L76487 72422
L76601 72422
L76658 72451
" />
<path d="M76944 72822
L76944 72222
" />
<path d="M76944 72451
L77001 72422
L77115 72422
L77172 72451
L77201 72480
L77230 72537
L77230 72708
L77201 72765
L77172 72794
L77115 72822
L77001 72822
L76944 72794
" />
<path d="M77430 72422
L77544 72822
L77658 72537
L77772 72822
L77887 72422
" />
<path d="M78115 72594
L78572 72594
" />
<path d="M79115 72822
L79115 72508
L79087 72451
L79030 72422
L78915 72422
L78858 72451
" />
<path d="M79115 72794
L79058 72822
L78915 72822
L78858 72794
L78830 72737
L78830 72680
L78858 72622
L78915 72594
L79058 72594
L79115 72565
" />
<path d="M79658 72794
L79601 72822
L79487 72822
L79430 72794
L79401 72765
L79372 72708
L79372 72537
L79401 72480
L79430 72451
L79487 72422
L79601 72422
L79658 72451
" />
<path d="M79830 72422
L80058 72422
" />
<path d="M79915 72222
L79915 72737
L79944 72794
L80001 72822
L80058 72822
" />
<path d="M80344 72822
L80287 72794
L80258 72765
L80230 72708
L80230 72537
L80258 72480
L80287 72451
L80344 72422
L80430 72422
L80487 72451
L80515 72480
L80544 72537
L80544 72708
L80515 72765
L80487 72794
L80430 72822
L80344 72822
" />
<path d="M80801 72822
L80801 72422
" />
<path d="M80801 72537
L80830 72480
L80858 72451
L80915 72422
L80972 72422
" />
<path d="M81172 72594
L81630 72594
" />
<path d="M81915 72822
L81915 72422
" />
<path d="M81915 72480
L81944 72451
L82001 72422
L82087 72422
L82144 72451
L82172 72508
L82172 72822
" />
<path d="M82172 72508
L82201 72451
L82258 72422
L82344 72422
L82401 72451
L82430 72508
L82430 72822
" />
<path d="M82944 72794
L82887 72822
L82772 72822
L82715 72794
L82687 72737
L82687 72508
L82715 72451
L82772 72422
L82887 72422
L82944 72451
L82972 72508
L82972 72565
L82687 72622
" />
<path d="M83230 72822
L83230 72422
" />
<path d="M83230 72537
L83258 72480
L83287 72451
L83344 72422
L83401 72422
" />
<path d="M83601 72822
L83601 72222
" />
<path d="M83658 72594
L83830 72822
" />
<path d="M83830 72422
L83601 72651
" />
<path d="M84344 72422
L84344 72822
" />
<path d="M84087 72422
L84087 72737
L84115 72794
L84172 72822
L84258 72822
L84315 72794
L84344 72765
" />
<path d="M84630 72822
L84630 72422
" />
<path d="M84630 72537
L84658 72480
L84687 72451
L84744 72422
L84801 72422
" />
<path d="M85001 72765
L85030 72794
L85001 72822
L84972 72794
L85001 72765
L85001 72822
" />
<path d="M85287 72822
L85287 72222
" />
<path d="M85287 72451
L85344 72422
L85458 72422
L85515 72451
L85544 72480
L85572 72537
L85572 72708
L85544 72765
L85515 72794
L85458 72822
L85344 72822
L85287 72794
" />
<path d="M85830 72822
L85830 72422
" />
<path d="M85830 72537
L85858 72480
L85887 72451
L85944 72422
L86001 72422
" />
<path d="M86458 72822
L86458 72222
" />
<path d="M86458 72794
L86401 72822
L86287 72822
L86230 72794
L86201 72765
L86172 72708
L86172 72537
L86201 72480
L86230 72451
L86287 72422
L86401 72422
L86458 72451
" />
<path d="M70944 73994
L71030 74022
L71172 74022
L71230 73994
L71258 73965
L71287 73908
L71287 73851
L71258 73794
L71230 73765
L71172 73737
L71058 73708
L71001 73680
L70972 73651
L70944 73594
L70944 73537
L70972 73480
L71001 73451
L71058 73422
L71201 73422
L71287 73451
" />
<path d="M71544 74022
L71544 73422
" />
<path d="M71801 74022
L71801 73708
L71772 73651
L71715 73622
L71630 73622
L71572 73651
L71544 73680
" />
<path d="M72315 73994
L72258 74022
L72144 74022
L72087 73994
L72058 73937
L72058 73708
L72087 73651
L72144 73622
L72258 73622
L72315 73651
L72344 73708
L72344 73765
L72058 73822
" />
<path d="M72830 73994
L72772 74022
L72658 74022
L72601 73994
L72572 73937
L72572 73708
L72601 73651
L72658 73622
L72772 73622
L72830 73651
L72858 73708
L72858 73765
L72572 73822
" />
<path d="M73030 73622
L73258 73622
" />
<path d="M73115 73422
L73115 73937
L73144 73994
L73201 74022
L73258 74022
" />
<path d="M73458 73965
L73487 73994
L73458 74022
L73430 73994
L73458 73965
L73458 74022
" />
<path d="M73458 73651
L73487 73680
L73458 73708
L73430 73680
L73458 73651
L73458 73708
" />
<path d="M70230 71980
L70230 77980
" />
<path d="M70230 71980
L112230 71980
" />
<path d="M70230 71980
L112230 71980
" />
<path d="M70230 74380
L112230 74380
" />
<path d="M103430 75580
L103430 77980
" />
<path d="M70230 76780
L112230 76780
" />
<path d="M70230 75580
L112230 75580
" />
<path d="M76830 75580
L76830 76780
" />
</g>
<g style="fill:#FFFF00; fill-opacity:0.0; 
stroke:#FFFF00; stroke-width:150; stroke-opacity:1; 
stroke-linecap:round; stroke-linejoin:round;">
<circle cx="35500" cy="42500" r="0.655906" /> 
<path d="M35499 42500
L35500 42500
" />
<path d="M35500 42499
L35500 42500
" />
<path d="M59500 42500
L35500 42500
" />
<path d="M59500 25500
L59500 42500
" />
<path d="M35500 25500
L59500 25500
" />
<path d="M35500 42500
L35500 25500
" />
</g>
<g style="fill:#7F7F00; fill-opacity:0.0; 
stroke:#7F7F00; stroke-width:793; stroke-opacity:1; 
stroke-linecap:round; stroke-linejoin:round;">
<path d="M57297 29500
L56703 29500
" />
<path d="M57297 30500
L56703 30500
" />
<path d="M57297 31500
L56703 31500
" />
<path d="M57297 32500
L56703 32500
" />
<path d="M57297 33500
L56703 33500
" />
<path d="M57297 34500
L56703 34500
" />
</g>
<g style="fill:#009F00; fill-opacity:0.0; 
stroke:#009F00; stroke-width:39.3701; stroke-opacity:1; 
stroke-linecap:round; stroke-linejoin:round;">
</g>
<g style="fill:#009F00; fill-opacity:1.0; 
stroke:#009F00; stroke-width:39.3701; stroke-opacity:1; 
stroke-linecap:round; stroke-linejoin:round;">
<polyline style="fill-rule:evenodd;"
points="55405,28948
54694,28948
54694,28551
55405,28551
55405,28948
" /> 
<polyline style="fill-rule:evenodd;"
points="53305,28948
52594,28948
52594,28551
53305,28551
53305,28948
" /> 
<polyline style="fill-rule:evenodd;"
points="55405,28448
54694,28448
54694,28051
55405,28051
55405,28448
" /> 
<polyline style="fill-rule:evenodd;"
points="55405,27948
54694,27948
54694,27551
55405,27551
55405,27948
" /> 
<polyline style="fill-rule:evenodd;"
points="55405,27448
54694,27448
54694,27051
55405,27051
55405,27448
" /> 
<polyline style="fill-rule:evenodd;"
points="53305,28448
52594,28448
52594,28051
53305,28051
53305,28448
" /> 
<polyline style="fill-rule:evenodd;"
points="53305,27948
52594,27948
52594,27551
53305,27551
53305,27948
" /> 
<polyline style="fill-rule:evenodd;"
points="53305,27448
52594,27448
52594,27051
53305,27051
53305,27448
" /> 
<polyline style="fill-rule:evenodd;"
points="55405,31448
54694,31448
54694,31051
55405,31051
55405,31448
" /> 
<polyline style="fill-rule:evenodd;"
points="53305,31448
52594,31448
52594,31051
53305,31051
53305,31448
" /> 
<polyline style="fill-rule:evenodd;"
points="55405,30948
54694,30948
54694,30551
55405,30551
55405,30948
" /> 
<polyline style="fill-rule:evenodd;"
points="55405,30448
54694,30448
54694,30051
55405,30051
55405,30448
" /> 
<polyline style="fill-rule:evenodd;"
points="55405,29948
54694,29948
54694,29551
55405,29551
55405,29948
" /> 
<polyline style="fill-rule:evenodd;"
points="53305,30948
52594,30948
52594,30551
53305,30551
53305,30948
" /> 
<polyline style="fill-rule:evenodd;"
points="53305,30448
52594,30448
52594,30051
53305,30051
53305,30448
" /> 
<polyline style="fill-rule:evenodd;"
points="53305,29948
52594,29948
52594,29551
53305,29551
53305,29948
" /> 
<polyline style="fill-rule:evenodd;"
points="55405,33948
54694,33948
54694,33551
55405,33551
55405,33948
" /> 
<polyline style="fill-rule:evenodd;"
points="53305,33948
52594,33948
52594,33551
53305,33551
53305,33948
" /> 
<polyline style="fill-rule:evenodd;"
points="55405,33448
54694,33448
54694,33051
55405,33051
55405,33448
" /> 
<polyline style="fill-rule:evenodd;"
points="55405,32948
54694,32948
54694,32551
55405,32551
55405,32948
" /> 
<polyline style="fill-rule:evenodd;"
points="55405,32448
54694,32448
54694,32051
55405,32051
55405,32448
" /> 
<polyline style="fill-rule:evenodd;"
points="53305,33448
52594,33448
52594,33051
53305,33051
53305,33448
" /> 
<polyline style="fill-rule:evenodd;"
points="53305,32948
52594,32948
52594,32551
53305,32551
53305,32948
" /> 
<polyline style="fill-rule:evenodd;"
points="53305,32448
52594,32448
52594,32051
53305,32051
53305,32448
" /> 
<polyline style="fill-rule:evenodd;"
points="55405,36448
54694,36448
54694,36051
55405,36051
55405,36448
" /> 
<polyline style="fill-rule:evenodd;"
points="53305,36448
52594,36448
52594,36051
53305,36051
53305,36448
" /> 
<polyline style="fill-rule:evenodd;"
points="55405,35948
54694,35948
54694,35551
55405,35551
55405,35948
" /> 
<polyline style="fill-rule:evenodd;"
points="55405,35448
54694,35448
54694,35051
55405,35051
55405,35448
" /> 
<polyline style="fill-rule:evenodd;"
points="55405,34948
54694,34948
54694,34551
55405,34551
55405,34948
" /> 
<polyline style="fill-rule:evenodd;"
points="53305,35948
52594,35948
52594,35551
53305,35551
53305,35948
" /> 
<polyline style="fill-rule:evenodd;"
points="53305,35448
52594,35448
52594,35051
53305,35051
53305,35448
" /> 
<polyline style="fill-rule:evenodd;"
points="53305,34948
52594,34948
52594,34551
53305,34551
53305,34948
" /> 
<polyline style="fill-rule:evenodd;"
points="39594,34551
40305,34551
40305,34948
39594,34948
39594,34551
" /> 
<polyline style="fill-rule:evenodd;"
points="41694,34551
42405,34551
42405,34948
41694,34948
41694,34551
" /> 
<polyline style="fill-rule:evenodd;"
points="39594,35051
40305,35051
40305,35448
39594,35448
39594,35051
" /> 
<polyline style="fill-rule:evenodd;"
points="39594,35551
40305,35551
40305,35948
39594,35948
39594,35551
" /> 
<polyline style="fill-rule:evenodd;"
points="39594,36051
40305,36051
40305,36448
39594,36448
39594,36051
" /> 
<polyline style="fill-rule:evenodd;"
points="41694,35051
42405,35051
42405,35448
41694,35448
41694,35051
" /> 
<polyline style="fill-rule:evenodd;"
points="41694,35551
42405,35551
42405,35948
41694,35948
41694,35551
" /> 
<polyline style="fill-rule:evenodd;"
points="41694,36051
42405,36051
42405,36448
41694,36448
41694,36051
" /> 
<polyline style="fill-rule:evenodd;"
points="39594,32051
40305,32051
40305,32448
39594,32448
39594,32051
" /> 
<polyline style="fill-rule:evenodd;"
points="41694,32051
42405,32051
42405,32448
41694,32448
41694,32051
" /> 
<polyline style="fill-rule:evenodd;"
points="39594,32551
40305,32551
40305,32948
39594,32948
39594,32551
" /> 
<polyline style="fill-rule:evenodd;"
points="39594,33051
40305,33051
40305,33448
39594,33448
39594,33051
" /> 
<polyline style="fill-rule:evenodd;"
points="39594,33551
40305,33551
40305,33948
39594,33948
39594,33551
" /> 
<polyline style="fill-rule:evenodd;"
points="41694,32551
42405,32551
42405,32948
41694,32948
41694,32551
" /> 
<polyline style="fill-rule:evenodd;"
points="41694,33051
42405,33051
42405,33448
41694,33448
41694,33051
" /> 
<polyline style="fill-rule:evenodd;"
points="41694,33551
42405,33551
42405,33948
41694,33948
41694,33551
" /> 
<polyline style="fill-rule:evenodd;"
points="39594,29551
40305,29551
40305,29948
39594,29948
39594,29551
" /> 
<polyline style="fill-rule:evenodd;"
points="41694,29551
42405,29551
42405,29948
41694,29948
41694,29551
" /> 
<polyline style="fill-rule:evenodd;"
points="39594,30051
40305,30051
40305,30448
39594,30448
39594,30051
" /> 
<polyline style="fill-rule:evenodd;"
points="39594,30551
40305,30551
40305,30948
39594,30948
39594,30551
" /> 
<polyline style="fill-rule:evenodd;"
points="39594,31051
40305,31051
40305,31448
39594,31448
39594,31051
" /> 
<polyline style="fill-rule:evenodd;"
points="41694,30051
42405,30051
42405,30448
41694,30448
41694,30051
" /> 
<polyline style="fill-rule:evenodd;"
points="41694,30551
42405,30551
42405,30948
41694,30948
41694,30551
" /> 
<polyline style="fill-rule:evenodd;"
points="41694,31051
42405,31051
42405,31448
41694,31448
41694,31051
" /> 
<polyline style="fill-rule:evenodd;"
points="39594,27051
40305,27051
40305,27448
39594,27448
39594,27051
" /> 
<polyline style="fill-rule:evenodd;"
points="41694,27051
42405,27051
42405,27448
41694,27448
41694,27051
" /> 
<polyline style="fill-rule:evenodd;"
points="39594,27551
40305,27551
40305,27948
39594,27948
39594,27551
" /> 
<polyline style="fill-rule:evenodd;"
points="39594,28051
40305,28051
40305,28448
39594,28448
39594,28051
" /> 
<polyline style="fill-rule:evenodd;"
points="39594,28551
40305,28551
40305,28948
39594,28948
39594,28551
" /> 
<polyline style="fill-rule:evenodd;"
points="41694,27551
42405,27551
42405,27948
41694,27948
41694,27551
" /> 
<polyline style="fill-rule:evenodd;"
points="41694,28051
42405,28051
42405,28448
41694,28448
41694,28051
" /> 
<polyline style="fill-rule:evenodd;"
points="41694,28551
42405,28551
42405,28948
41694,28948
41694,28551
" /> 
<polyline style="fill-rule:evenodd;"
points="44644,31369
45355,31369
45355,31880
44644,31880
44644,31369
" /> 
<polyline style="fill-rule:evenodd;"
points="44644,32119
45355,32119
45355,32630
44644,32630
44644,32119
" /> 
<polyline style="fill-rule:evenodd;"
points="44644,33369
45355,33369
45355,33880
44644,33880
44644,33369
" /> 
<polyline style="fill-rule:evenodd;"
points="44644,34119
45355,34119
45355,34630
44644,34630
44644,34119
" /> 
<polyline style="fill-rule:evenodd;"
points="45355,36630
44644,36630
44644,36119
45355,36119
45355,36630
" /> 
<polyline style="fill-rule:evenodd;"
points="45355,35880
44644,35880
44644,35369
45355,35369
45355,35880
" /> 
<polyline style="fill-rule:evenodd;"
points="50355,36630
49644,36630
49644,36119
50355,36119
50355,36630
" /> 
<polyline style="fill-rule:evenodd;"
points="50355,35880
49644,35880
49644,35369
50355,35369
50355,35880
" /> 
<polyline style="fill-rule:evenodd;"
points="49644,33369
50355,33369
50355,33880
49644,33880
49644,33369
" /> 
<polyline style="fill-rule:evenodd;"
points="49644,34119
50355,34119
50355,34630
49644,34630
49644,34119
" /> 
<polyline style="fill-rule:evenodd;"
points="49644,31369
50355,31369
50355,31880
49644,31880
49644,31369
" /> 
<polyline style="fill-rule:evenodd;"
points="49644,32119
50355,32119
50355,32630
49644,32630
49644,32119
" /> 
<polyline style="fill-rule:evenodd;"
points="49644,29369
50355,29369
50355,29880
49644,29880
49644,29369
" /> 
<polyline style="fill-rule:evenodd;"
points="49644,30119
50355,30119
50355,30630
49644,30630
49644,30119
" /> 
<polyline style="fill-rule:evenodd;"
points="44644,29369
45355,29369
45355,29880
44644,29880
44644,29369
" /> 
<polyline style="fill-rule:evenodd;"
points="44644,30119
45355,30119
45355,30630
44644,30630
44644,30119
" /> 
</g>
<g style="fill:#7F7F00; fill-opacity:1.0; 
stroke:#7F7F00; stroke-width:793; stroke-opacity:1; 
stroke-linecap:round; stroke-linejoin:round;">
<path d="M37703 34500
L38297 34500
" />
<path d="M37703 33500
L38297 33500
" />
<path d="M37703 32500
L38297 32500
" />
<path d="M37703 31500
L38297 31500
" />
<path d="M37703 30500
L38297 30500
" />
<path d="M37703 29500
L38297 29500
" />
</g>
<g style="fill:#7F7F00; fill-opacity:1.0; 
stroke:#7F7F00; stroke-width:712; stroke-opacity:1; 
stroke-linecap:round; stroke-linejoin:round;">
<path d="M51598 39000
L51401 39000
" />
<path d="M51598 38000
L51401 38000
" />
<path d="M51598 37000
L51401 37000
" />
<path d="M51598 36000
L51401 36000
" />
<path d="M51598 35000
L51401 35000
" />
<path d="M51598 34000
L51401 34000
" />
<path d="M51598 33000
L51401 33000
" />
<path d="M51598 32000
L51401 32000
" />
<path d="M51598 31000
L51401 31000
" />
<path d="M51598 30000
L51401 30000
" />
<path d="M51598 29000
L51401 29000
" />
<path d="M51598 28000
L51401 28000
" />
<path d="M43598 28000
L43401 28000
" />
<path d="M43598 29000
L43401 29000
" />
<path d="M43598 30000
L43401 30000
" />
<path d="M43598 31000
L43401 31000
" />
<path d="M43598 32000
L43401 32000
" />
<path d="M43598 33000
L43401 33000
" />
<path d="M43598 34000
L43401 34000
" />
<path d="M43598 35000
L43401 35000
" />
<path d="M43598 36000
L43401 36000
" />
<path d="M43598 37000
L43401 37000
" />
<path d="M43598 38000
L43401 38000
" />
<path d="M43598 39000
L43401 39000
" />
<path d="M43598 40000
L43401 40000
" />
<path d="M50250 40151
L50250 40348
" />
<path d="M49250 40151
L49250 40348
" />
<path d="M48250 40151
L48250 40348
" />
<path d="M47250 40151
L47250 40348
" />
<path d="M46250 40151
L46250 40348
" />
<path d="M45250 40151
L45250 40348
" />
</g>
<g style="fill:#7F7F00; fill-opacity:1.0; 
stroke:#7F7F00; stroke-width:39.3701; stroke-opacity:1; 
stroke-linecap:round; stroke-linejoin:round;">
<polyline style="fill-rule:evenodd;"
points="53419,40080
53419,38919
54580,38919
54580,40080
53419,40080
" /> 
<circle cx="56000" cy="39500" r="580.315" /> 
</g>
<g style="fill:#009F00; fill-opacity:1.0; 
stroke:#009F00; stroke-width:39.3701; stroke-opacity:1; 
stroke-linecap:round; stroke-linejoin:round;">
<polyline style="fill-rule:evenodd;"
points="40994,37826
41783,37826
41783,38379
40994,38379
40994,37826
" /> 
<polyline style="fill-rule:evenodd;"
points="40994,39620
41783,39620
41783,40173
40994,40173
40994,39620
" /> 
<polyline style="fill-rule:evenodd;"
points="37215,37857
39816,37857
39816,40142
37215,40142
37215,37857
" /> 
</g> 
</svg>
