<?xml version="1.0" standalone="no"?>
 <!DOCTYPE svg PUBLIC "-//W3C//DTD SVG 1.1//EN" 
 "http://www.w3.org/Graphics/SVG/1.1/DTD/svg11.dtd"> 
<svg xmlns="http://www.w3.org/2000/svg" version="1.1" 
    width="29.7002cm" height="21.0007cm" viewBox="0 0 116930 82680 ">
<title>SVG Picture created as dual-rgbw-actor-merkur-B_SilkS.svg date 2014/04/15 18:53:05 </title>
  <desc>Picture generated by PCBNEW </desc>
<g style="fill:#000000; fill-opacity:1;stroke:#000000; stroke-opacity:1;
stroke-linecap:round; stroke-linejoin:round; "
 transform="translate(0 0) scale(1 1)">
</g>
<g style="fill:#000000; fill-opacity:0.0; 
stroke:#000000; stroke-width:39.3701; stroke-opacity:1; 
stroke-linecap:round; stroke-linejoin:round;">
<path d="M4000 4000
L112930 4000
L112930 78680
L4000 78680
L4000 4000
" />
<path d="M4700 4700
L112230 4700
L112230 77980
L4700 77980
L4700 4700
" />
<path d="M25780 4000
L25780 4700
" />
<path d="M15032 4552
L14747 4552
" />
<path d="M14890 4552
L14890 4052
L14842 4123
L14794 4171
L14747 4195
" />
<path d="M25780 78680
L25780 77980
" />
<path d="M15032 78532
L14747 78532
" />
<path d="M14890 78532
L14890 78032
L14842 78103
L14794 78151
L14747 78175
" />
<path d="M47560 4000
L47560 4700
" />
<path d="M36527 4100
L36550 4076
L36598 4052
L36717 4052
L36765 4076
L36789 4100
L36812 4147
L36812 4195
L36789 4266
L36503 4552
L36812 4552
" />
<path d="M47560 78680
L47560 77980
" />
<path d="M36527 78080
L36550 78056
L36598 78032
L36717 78032
L36765 78056
L36789 78080
L36812 78127
L36812 78175
L36789 78246
L36503 78532
L36812 78532
" />
<path d="M69340 4000
L69340 4700
" />
<path d="M58283 4052
L58592 4052
L58426 4242
L58497 4242
L58545 4266
L58569 4290
L58592 4338
L58592 4457
L58569 4504
L58545 4528
L58497 4552
L58354 4552
L58307 4528
L58283 4504
" />
<path d="M69340 78680
L69340 77980
" />
<path d="M58283 78032
L58592 78032
L58426 78222
L58497 78222
L58545 78246
L58569 78270
L58592 78318
L58592 78437
L58569 78484
L58545 78508
L58497 78532
L58354 78532
L58307 78508
L58283 78484
" />
<path d="M91120 4000
L91120 4700
" />
<path d="M80325 4219
L80325 4552
" />
<path d="M80206 4028
L80087 4385
L80396 4385
" />
<path d="M91120 78680
L91120 77980
" />
<path d="M80325 78199
L80325 78532
" />
<path d="M80206 78008
L80087 78365
L80396 78365
" />
<path d="M102129 4052
L101890 4052
L101867 4290
L101890 4266
L101938 4242
L102057 4242
L102105 4266
L102129 4290
L102152 4338
L102152 4457
L102129 4504
L102105 4528
L102057 4552
L101938 4552
L101890 4528
L101867 4504
" />
<path d="M102129 78032
L101890 78032
L101867 78270
L101890 78246
L101938 78222
L102057 78222
L102105 78246
L102129 78270
L102152 78318
L102152 78437
L102129 78484
L102105 78508
L102057 78532
L101938 78532
L101890 78508
L101867 78484
" />
<path d="M4000 28890
L4700 28890
" />
<path d="M4230 16509
L4469 16509
" />
<path d="M4183 16652
L4350 16152
L4516 16652
" />
<path d="M112930 28890
L112230 28890
" />
<path d="M112460 16509
L112699 16509
" />
<path d="M112413 16652
L112580 16152
L112746 16652
" />
<path d="M4000 53780
L4700 53780
" />
<path d="M4385 41280
L4457 41304
L4480 41328
L4504 41375
L4504 41447
L4480 41494
L4457 41518
L4409 41542
L4219 41542
L4219 41042
L4385 41042
L4433 41066
L4457 41090
L4480 41137
L4480 41185
L4457 41232
L4433 41256
L4385 41280
L4219 41280
" />
<path d="M112930 53780
L112230 53780
" />
<path d="M112615 41280
L112687 41304
L112710 41328
L112734 41375
L112734 41447
L112710 41494
L112687 41518
L112639 41542
L112449 41542
L112449 41042
L112615 41042
L112663 41066
L112687 41090
L112710 41137
L112710 41185
L112687 41232
L112663 41256
L112615 41280
L112449 41280
" />
<path d="M4504 66384
L4480 66408
L4409 66432
L4361 66432
L4290 66408
L4242 66360
L4219 66313
L4195 66218
L4195 66146
L4219 66051
L4242 66003
L4290 65956
L4361 65932
L4409 65932
L4480 65956
L4504 65980
" />
<path d="M112734 66384
L112710 66408
L112639 66432
L112591 66432
L112520 66408
L112472 66360
L112449 66313
L112425 66218
L112425 66146
L112449 66051
L112472 66003
L112520 65956
L112591 65932
L112639 65932
L112710 65956
L112734 65980
" />
<path d="M79380 76422
L79455 75822
L79597 75822
L79680 75851
L79730 75908
L79751 75965
L79765 76080
L79755 76165
L79712 76280
L79676 76337
L79612 76394
L79522 76422
L79380 76422
" />
<path d="M80237 76422
L80276 76108
L80255 76051
L80201 76022
L80087 76022
L80026 76051
" />
<path d="M80240 76394
L80180 76422
L80037 76422
L79983 76394
L79962 76337
L79969 76280
L80005 76222
L80065 76194
L80208 76194
L80269 76165
" />
<path d="M80487 76022
L80715 76022
" />
<path d="M80597 75822
L80533 76337
L80555 76394
L80608 76422
L80665 76422
" />
<path d="M81097 76394
L81037 76422
L80922 76422
L80869 76394
L80847 76337
L80876 76108
L80912 76051
L80972 76022
L81087 76022
L81140 76051
L81162 76108
L81155 76165
L80862 76222
" />
<path d="M81387 76365
L81412 76394
L81380 76422
L81355 76394
L81387 76365
L81380 76422
" />
<path d="M81426 76051
L81451 76080
L81419 76108
L81394 76080
L81426 76051
L81419 76108
" />
<path d="M82437 76422
L82094 76422
" />
<path d="M82265 76422
L82340 75822
L82272 75908
L82208 75965
L82147 75994
" />
<path d="M83055 75822
L82769 75822
L82705 76108
L82737 76080
L82797 76051
L82940 76051
L82994 76080
L83019 76108
L83040 76165
L83022 76308
L82987 76365
L82955 76394
L82894 76422
L82751 76422
L82697 76394
L82672 76365
" />
<path d="M83980 76422
L84019 76108
L83997 76051
L83944 76022
L83830 76022
L83769 76051
" />
<path d="M83983 76394
L83922 76422
L83780 76422
L83726 76394
L83705 76337
L83712 76280
L83747 76222
L83808 76194
L83951 76194
L84012 76165
" />
<path d="M84315 76022
L84240 76622
" />
<path d="M84312 76051
L84372 76022
L84487 76022
L84540 76051
L84565 76080
L84587 76137
L84565 76308
L84530 76365
L84497 76394
L84437 76422
L84322 76422
L84269 76394
" />
<path d="M84808 76422
L84858 76022
" />
<path d="M84844 76137
L84880 76080
L84912 76051
L84972 76022
L85030 76022
" />
<path d="M85676 75880
L85708 75851
L85769 75822
L85912 75822
L85965 75851
L85990 75880
L86012 75937
L86005 75994
L85965 76080
L85580 76422
L85951 76422
" />
<path d="M86397 75822
L86455 75822
L86508 75851
L86533 75880
L86555 75937
L86569 76051
L86551 76194
L86508 76308
L86472 76365
L86440 76394
L86380 76422
L86322 76422
L86269 76394
L86244 76365
L86222 76308
L86208 76194
L86226 76051
L86269 75937
L86305 75880
L86337 75851
L86397 75822
" />
<path d="M87094 76422
L86751 76422
" />
<path d="M86922 76422
L86997 75822
L86930 75908
L86865 75965
L86805 75994
" />
<path d="M87658 76022
L87608 76422
" />
<path d="M87544 75794
L87347 76222
L87719 76222
" />
<path d="M70972 77622
L70972 77022
" />
<path d="M71315 77622
L71058 77280
" />
<path d="M71315 77022
L70972 77365
" />
<path d="M71572 77622
L71572 77222
" />
<path d="M71572 77022
L71544 77051
L71572 77080
L71601 77051
L71572 77022
L71572 77080
" />
<path d="M72201 77565
L72172 77594
L72087 77622
L72030 77622
L71944 77594
L71887 77537
L71858 77480
L71830 77365
L71830 77280
L71858 77165
L71887 77108
L71944 77051
L72030 77022
L72087 77022
L72172 77051
L72201 77080
" />
<path d="M72715 77622
L72715 77308
L72687 77251
L72630 77222
L72515 77222
L72458 77251
" />
<path d="M72715 77594
L72658 77622
L72515 77622
L72458 77594
L72430 77537
L72430 77480
L72458 77422
L72515 77394
L72658 77394
L72715 77365
" />
<path d="M73258 77622
L73258 77022
" />
<path d="M73258 77594
L73201 77622
L73087 77622
L73030 77594
L73001 77565
L72972 77508
L72972 77337
L73001 77280
L73030 77251
L73087 77222
L73201 77222
L73258 77251
" />
<path d="M74001 77308
L74201 77308
" />
<path d="M74287 77622
L74001 77622
L74001 77022
L74287 77022
" />
<path d="M74544 77565
L74572 77594
L74544 77622
L74515 77594
L74544 77565
L74544 77622
" />
<path d="M74829 77622
L74829 77022
L74972 77022
L75058 77051
L75115 77108
L75144 77165
L75172 77280
L75172 77365
L75144 77480
L75115 77537
L75058 77594
L74972 77622
L74829 77622
" />
<path d="M75429 77565
L75458 77594
L75429 77622
L75401 77594
L75429 77565
L75429 77622
" />
<path d="M75687 77451
L75972 77451
" />
<path d="M75629 77622
L75829 77022
L76029 77622
" />
<path d="M76229 77565
L76258 77594
L76229 77622
L76201 77594
L76229 77565
L76229 77622
" />
<path d="M104522 76422
L104358 76137
" />
<path d="M104180 76422
L104255 75822
L104483 75822
L104537 75851
L104562 75880
L104583 75937
L104572 76022
L104537 76080
L104505 76108
L104444 76137
L104215 76137
" />
<path d="M105012 76394
L104951 76422
L104837 76422
L104783 76394
L104762 76337
L104790 76108
L104826 76051
L104887 76022
L105001 76022
L105055 76051
L105076 76108
L105069 76165
L104776 76222
" />
<path d="M105287 76022
L105380 76422
L105572 76022
" />
<path d="M105758 76365
L105783 76394
L105751 76422
L105726 76394
L105758 76365
L105751 76422
" />
<path d="M105797 76051
L105822 76080
L105790 76108
L105765 76080
L105797 76051
L105790 76108
" />
<path d="M70944 76394
L71030 76422
L71172 76422
L71230 76394
L71258 76365
L71287 76308
L71287 76251
L71258 76194
L71230 76165
L71172 76137
L71058 76108
L71001 76080
L70972 76051
L70944 75994
L70944 75937
L70972 75880
L71001 75851
L71058 75822
L71201 75822
L71287 75851
" />
<path d="M71544 76422
L71544 76022
" />
<path d="M71544 75822
L71515 75851
L71544 75880
L71572 75851
L71544 75822
L71544 75880
" />
<path d="M71772 76022
L72087 76022
L71772 76422
L72087 76422
" />
<path d="M72544 76394
L72487 76422
L72372 76422
L72315 76394
L72287 76337
L72287 76108
L72315 76051
L72372 76022
L72487 76022
L72544 76051
L72572 76108
L72572 76165
L72287 76222
" />
<path d="M72830 76365
L72858 76394
L72830 76422
L72801 76394
L72830 76365
L72830 76422
" />
<path d="M72830 76051
L72858 76080
L72830 76108
L72801 76080
L72830 76051
L72830 76108
" />
<path d="M73544 76251
L73830 76251
" />
<path d="M73487 76422
L73687 75822
L73887 76422
" />
<path d="M74344 76022
L74344 76422
" />
<path d="M74201 75794
L74058 76222
L74430 76222
" />
<path d="M104172 77622
L104172 77022
" />
<path d="M104715 77622
L104715 77022
" />
<path d="M104715 77594
L104658 77622
L104544 77622
L104487 77594
L104458 77565
L104430 77508
L104430 77337
L104458 77280
L104487 77251
L104544 77222
L104658 77222
L104715 77251
" />
<path d="M105001 77565
L105030 77594
L105001 77622
L104972 77594
L105001 77565
L105001 77622
" />
<path d="M105001 77251
L105030 77280
L105001 77308
L104972 77280
L105001 77251
L105001 77308
" />
<path d="M106058 77622
L105715 77622
" />
<path d="M105887 77622
L105887 77022
L105829 77108
L105772 77165
L105715 77194
" />
<path d="M106744 76994
L106230 77765
" />
<path d="M107258 77622
L106915 77622
" />
<path d="M107087 77622
L107087 77022
L107029 77108
L106972 77165
L106915 77194
" />
<path d="M70969 74622
L71312 74622
" />
<path d="M71065 75222
L71140 74622
" />
<path d="M71437 75222
L71487 74822
" />
<path d="M71512 74622
L71480 74651
L71505 74680
L71537 74651
L71512 74622
L71505 74680
" />
<path d="M71687 74822
L71915 74822
" />
<path d="M71797 74622
L71733 75137
L71755 75194
L71808 75222
L71865 75222
" />
<path d="M72151 75222
L72097 75194
L72076 75137
L72140 74622
" />
<path d="M72612 75194
L72551 75222
L72437 75222
L72383 75194
L72362 75137
L72390 74908
L72426 74851
L72487 74822
L72601 74822
L72655 74851
L72676 74908
L72669 74965
L72376 75022
" />
<path d="M72901 75165
L72926 75194
L72894 75222
L72869 75194
L72901 75165
L72894 75222
" />
<path d="M72940 74851
L72965 74880
L72933 74908
L72908 74880
L72940 74851
L72933 74908
" />
<path d="M71172 72508
L70972 72508
" />
<path d="M70972 72822
L70972 72222
L71258 72222
" />
<path d="M71487 72822
L71487 72422
" />
<path d="M71487 72222
L71458 72251
L71487 72280
L71515 72251
L71487 72222
L71487 72280
" />
<path d="M71858 72822
L71801 72794
L71772 72737
L71772 72222
" />
<path d="M72315 72794
L72258 72822
L72144 72822
L72087 72794
L72058 72737
L72058 72508
L72087 72451
L72144 72422
L72258 72422
L72315 72451
L72344 72508
L72344 72565
L72058 72622
" />
<path d="M72601 72765
L72630 72794
L72601 72822
L72572 72794
L72601 72765
L72601 72822
" />
<path d="M72601 72451
L72630 72480
L72601 72508
L72572 72480
L72601 72451
L72601 72508
" />
<path d="M73601 72822
L73601 72222
" />
<path d="M73601 72794
L73544 72822
L73430 72822
L73372 72794
L73344 72765
L73315 72708
L73315 72537
L73344 72480
L73372 72451
L73430 72422
L73544 72422
L73601 72451
" />
<path d="M74144 72422
L74144 72822
" />
<path d="M73887 72422
L73887 72737
L73915 72794
L73972 72822
L74058 72822
L74115 72794
L74144 72765
" />
<path d="M74687 72822
L74687 72508
L74658 72451
L74601 72422
L74487 72422
L74430 72451
" />
<path d="M74687 72794
L74630 72822
L74487 72822
L74430 72794
L74401 72737
L74401 72680
L74430 72622
L74487 72594
L74630 72594
L74687 72565
" />
<path d="M75058 72822
L75001 72794
L74972 72737
L74972 72222
" />
<path d="M75287 72594
L75744 72594
" />
<path d="M76030 72822
L76030 72422
" />
<path d="M76030 72537
L76058 72480
L76087 72451
L76144 72422
L76201 72422
" />
<path d="M76658 72422
L76658 72908
L76630 72965
L76601 72994
L76544 73022
L76458 73022
L76401 72994
" />
<path d="M76658 72794
L76601 72822
L76487 72822
L76430 72794
L76401 72765
L76372 72708
L76372 72537
L76401 72480
L76430 72451
L76487 72422
L76601 72422
L76658 72451
" />
<path d="M76944 72822
L76944 72222
" />
<path d="M76944 72451
L77001 72422
L77115 72422
L77172 72451
L77201 72480
L77230 72537
L77230 72708
L77201 72765
L77172 72794
L77115 72822
L77001 72822
L76944 72794
" />
<path d="M77430 72422
L77544 72822
L77658 72537
L77772 72822
L77887 72422
" />
<path d="M78115 72594
L78572 72594
" />
<path d="M79115 72822
L79115 72508
L79087 72451
L79030 72422
L78915 72422
L78858 72451
" />
<path d="M79115 72794
L79058 72822
L78915 72822
L78858 72794
L78830 72737
L78830 72680
L78858 72622
L78915 72594
L79058 72594
L79115 72565
" />
<path d="M79658 72794
L79601 72822
L79487 72822
L79430 72794
L79401 72765
L79372 72708
L79372 72537
L79401 72480
L79430 72451
L79487 72422
L79601 72422
L79658 72451
" />
<path d="M79830 72422
L80058 72422
" />
<path d="M79915 72222
L79915 72737
L79944 72794
L80001 72822
L80058 72822
" />
<path d="M80344 72822
L80287 72794
L80258 72765
L80230 72708
L80230 72537
L80258 72480
L80287 72451
L80344 72422
L80430 72422
L80487 72451
L80515 72480
L80544 72537
L80544 72708
L80515 72765
L80487 72794
L80430 72822
L80344 72822
" />
<path d="M80801 72822
L80801 72422
" />
<path d="M80801 72537
L80830 72480
L80858 72451
L80915 72422
L80972 72422
" />
<path d="M81172 72594
L81630 72594
" />
<path d="M81915 72822
L81915 72422
" />
<path d="M81915 72480
L81944 72451
L82001 72422
L82087 72422
L82144 72451
L82172 72508
L82172 72822
" />
<path d="M82172 72508
L82201 72451
L82258 72422
L82344 72422
L82401 72451
L82430 72508
L82430 72822
" />
<path d="M82944 72794
L82887 72822
L82772 72822
L82715 72794
L82687 72737
L82687 72508
L82715 72451
L82772 72422
L82887 72422
L82944 72451
L82972 72508
L82972 72565
L82687 72622
" />
<path d="M83230 72822
L83230 72422
" />
<path d="M83230 72537
L83258 72480
L83287 72451
L83344 72422
L83401 72422
" />
<path d="M83601 72822
L83601 72222
" />
<path d="M83658 72594
L83830 72822
" />
<path d="M83830 72422
L83601 72651
" />
<path d="M84344 72422
L84344 72822
" />
<path d="M84087 72422
L84087 72737
L84115 72794
L84172 72822
L84258 72822
L84315 72794
L84344 72765
" />
<path d="M84630 72822
L84630 72422
" />
<path d="M84630 72537
L84658 72480
L84687 72451
L84744 72422
L84801 72422
" />
<path d="M85001 72765
L85030 72794
L85001 72822
L84972 72794
L85001 72765
L85001 72822
" />
<path d="M85287 72822
L85287 72222
" />
<path d="M85287 72451
L85344 72422
L85458 72422
L85515 72451
L85544 72480
L85572 72537
L85572 72708
L85544 72765
L85515 72794
L85458 72822
L85344 72822
L85287 72794
" />
<path d="M85830 72822
L85830 72422
" />
<path d="M85830 72537
L85858 72480
L85887 72451
L85944 72422
L86001 72422
" />
<path d="M86458 72822
L86458 72222
" />
<path d="M86458 72794
L86401 72822
L86287 72822
L86230 72794
L86201 72765
L86172 72708
L86172 72537
L86201 72480
L86230 72451
L86287 72422
L86401 72422
L86458 72451
" />
<path d="M70944 73994
L71030 74022
L71172 74022
L71230 73994
L71258 73965
L71287 73908
L71287 73851
L71258 73794
L71230 73765
L71172 73737
L71058 73708
L71001 73680
L70972 73651
L70944 73594
L70944 73537
L70972 73480
L71001 73451
L71058 73422
L71201 73422
L71287 73451
" />
<path d="M71544 74022
L71544 73422
" />
<path d="M71801 74022
L71801 73708
L71772 73651
L71715 73622
L71630 73622
L71572 73651
L71544 73680
" />
<path d="M72315 73994
L72258 74022
L72144 74022
L72087 73994
L72058 73937
L72058 73708
L72087 73651
L72144 73622
L72258 73622
L72315 73651
L72344 73708
L72344 73765
L72058 73822
" />
<path d="M72830 73994
L72772 74022
L72658 74022
L72601 73994
L72572 73937
L72572 73708
L72601 73651
L72658 73622
L72772 73622
L72830 73651
L72858 73708
L72858 73765
L72572 73822
" />
<path d="M73030 73622
L73258 73622
" />
<path d="M73115 73422
L73115 73937
L73144 73994
L73201 74022
L73258 74022
" />
<path d="M73458 73965
L73487 73994
L73458 74022
L73430 73994
L73458 73965
L73458 74022
" />
<path d="M73458 73651
L73487 73680
L73458 73708
L73430 73680
L73458 73651
L73458 73708
" />
<path d="M70230 71980
L70230 77980
" />
<path d="M70230 71980
L112230 71980
" />
<path d="M70230 71980
L112230 71980
" />
<path d="M70230 74380
L112230 74380
" />
<path d="M103430 75580
L103430 77980
" />
<path d="M70230 76780
L112230 76780
" />
<path d="M70230 75580
L112230 75580
" />
<path d="M76830 75580
L76830 76780
" />
</g>
<g style="fill:#FFFF00; fill-opacity:0.0; 
stroke:#FFFF00; stroke-width:150; stroke-opacity:1; 
stroke-linecap:round; stroke-linejoin:round;">
<circle cx="35500" cy="42500" r="0.655906" /> 
<path d="M35499 42500
L35500 42500
" />
<path d="M35500 42499
L35500 42500
" />
<path d="M59500 42500
L35500 42500
" />
<path d="M59500 25500
L59500 42500
" />
<path d="M35500 25500
L59500 25500
" />
<path d="M35500 42500
L35500 25500
" />
</g>
<g style="fill:#9F009F; fill-opacity:0.0; 
stroke:#9F009F; stroke-width:60; stroke-opacity:1; 
stroke-linecap:round; stroke-linejoin:round;">
<path d="M54575 27528
L54553 27485
L54510 27442
L54446 27378
L54425 27335
L54425 27292
" />
<path d="M54532 27314
L54510 27271
L54467 27228
L54382 27207
L54232 27207
L54146 27228
L54103 27271
L54082 27314
L54082 27400
L54103 27442
L54146 27485
L54232 27507
L54382 27507
L54467 27485
L54510 27442
L54532 27400
L54532 27314
" />
<path d="M54532 27935
L54532 27678
" />
<path d="M54532 27807
L54082 27807
L54146 27764
L54189 27721
L54210 27678
" />
<path d="M54082 28214
L54082 28257
L54103 28300
L54125 28321
L54167 28342
L54253 28364
L54360 28364
L54446 28342
L54489 28321
L54510 28300
L54532 28257
L54532 28214
L54510 28171
L54489 28150
L54446 28128
L54360 28107
L54253 28107
L54167 28128
L54125 28150
L54103 28171
L54082 28214
" />
<path d="M54532 28792
L54532 28535
" />
<path d="M54532 28664
L54082 28664
L54146 28621
L54189 28578
L54210 28535
" />
<path d="M53741 25824
L53391 25824
L53391 25908
L53408 25958
L53441 25991
L53475 26008
L53541 26024
L53591 26024
L53658 26008
L53691 25991
L53725 25958
L53741 25908
L53741 25824
" />
<path d="M53741 26174
L53391 26174
L53641 26291
L53391 26408
L53741 26408
" />
<path d="M53725 26558
L53741 26608
L53741 26691
L53725 26724
L53708 26741
L53675 26758
L53641 26758
L53608 26741
L53591 26724
L53575 26691
L53558 26624
L53541 26591
L53525 26574
L53491 26558
L53458 26558
L53425 26574
L53408 26591
L53391 26624
L53391 26708
L53408 26758
" />
<path d="M53391 26874
L53391 27091
L53525 26974
L53525 27024
L53541 27058
L53558 27074
L53591 27091
L53675 27091
L53708 27074
L53725 27058
L53741 27024
L53741 26924
L53725 26891
L53708 26874
" />
<path d="M53391 27308
L53391 27341
L53408 27374
L53425 27391
L53458 27408
L53525 27424
L53608 27424
L53675 27408
L53708 27391
L53725 27374
L53741 27341
L53741 27308
L53725 27274
L53708 27258
L53675 27241
L53608 27224
L53525 27224
L53458 27241
L53425 27258
L53408 27274
L53391 27308
" />
<path d="M53741 27758
L53741 27558
" />
<path d="M53741 27658
L53391 27658
L53441 27625
L53475 27591
L53491 27558
" />
<path d="M53391 28075
L53391 27908
L53558 27891
L53541 27908
L53525 27941
L53525 28025
L53541 28058
L53558 28075
L53591 28091
L53675 28091
L53708 28075
L53725 28058
L53741 28025
L53741 27941
L53725 27908
L53708 27891
" />
<path d="M53725 28225
L53741 28275
L53741 28358
L53725 28391
L53708 28408
L53675 28425
L53641 28425
L53608 28408
L53591 28391
L53575 28358
L53558 28291
L53541 28258
L53525 28241
L53491 28225
L53458 28225
L53425 28241
L53408 28258
L53391 28291
L53391 28375
L53408 28425
" />
<path d="M53725 28558
L53741 28608
L53741 28691
L53725 28725
L53708 28741
L53675 28758
L53641 28758
L53608 28741
L53591 28725
L53575 28691
L53558 28625
L53541 28591
L53525 28575
L53491 28558
L53458 28558
L53425 28575
L53408 28591
L53391 28625
L53391 28708
L53408 28758
" />
<path d="M53725 28891
L53741 28941
L53741 29025
L53725 29058
L53708 29075
L53675 29091
L53641 29091
L53608 29075
L53591 29058
L53575 29025
L53558 28958
L53541 28925
L53525 28908
L53491 28891
L53458 28891
L53425 28908
L53408 28925
L53391 28958
L53391 29041
L53408 29091
" />
<path d="M53608 29241
L53608 29508
" />
<path d="M53741 29858
L53741 29658
" />
<path d="M53741 29758
L53391 29758
L53441 29725
L53475 29691
L53491 29658
" />
<path d="M53391 29975
L53391 30191
L53525 30075
L53525 30125
L53541 30158
L53558 30175
L53591 30191
L53675 30191
L53708 30175
L53725 30158
L53741 30125
L53741 30025
L53725 29991
L53708 29975
" />
<path d="M54575 30028
L54553 29985
L54510 29942
L54446 29878
L54425 29835
L54425 29792
" />
<path d="M54532 29814
L54510 29771
L54467 29728
L54382 29707
L54232 29707
L54146 29728
L54103 29771
L54082 29814
L54082 29900
L54103 29942
L54146 29985
L54232 30007
L54382 30007
L54467 29985
L54510 29942
L54532 29900
L54532 29814
" />
<path d="M54532 30435
L54532 30178
" />
<path d="M54532 30307
L54082 30307
L54146 30264
L54189 30221
L54210 30178
" />
<path d="M54082 30714
L54082 30757
L54103 30800
L54125 30821
L54167 30842
L54253 30864
L54360 30864
L54446 30842
L54489 30821
L54510 30800
L54532 30757
L54532 30714
L54510 30671
L54489 30650
L54446 30628
L54360 30607
L54253 30607
L54167 30628
L54125 30650
L54103 30671
L54082 30714
" />
<path d="M54125 31035
L54103 31057
L54082 31100
L54082 31207
L54103 31250
L54125 31271
L54167 31292
L54210 31292
L54275 31271
L54532 31014
L54532 31292
" />
<path d="M53741 28324
L53391 28324
L53391 28408
L53408 28458
L53441 28491
L53475 28508
L53541 28524
L53591 28524
L53658 28508
L53691 28491
L53725 28458
L53741 28408
L53741 28324
" />
<path d="M53741 28674
L53391 28674
L53641 28791
L53391 28908
L53741 28908
" />
<path d="M53725 29058
L53741 29108
L53741 29191
L53725 29224
L53708 29241
L53675 29258
L53641 29258
L53608 29241
L53591 29224
L53575 29191
L53558 29124
L53541 29091
L53525 29074
L53491 29058
L53458 29058
L53425 29074
L53408 29091
L53391 29124
L53391 29208
L53408 29258
" />
<path d="M53391 29374
L53391 29591
L53525 29474
L53525 29524
L53541 29558
L53558 29574
L53591 29591
L53675 29591
L53708 29574
L53725 29558
L53741 29524
L53741 29424
L53725 29391
L53708 29374
" />
<path d="M53391 29808
L53391 29841
L53408 29874
L53425 29891
L53458 29908
L53525 29924
L53608 29924
L53675 29908
L53708 29891
L53725 29874
L53741 29841
L53741 29808
L53725 29774
L53708 29758
L53675 29741
L53608 29724
L53525 29724
L53458 29741
L53425 29758
L53408 29774
L53391 29808
" />
<path d="M53741 30258
L53741 30058
" />
<path d="M53741 30158
L53391 30158
L53441 30125
L53475 30091
L53491 30058
" />
<path d="M53391 30575
L53391 30408
L53558 30391
L53541 30408
L53525 30441
L53525 30525
L53541 30558
L53558 30575
L53591 30591
L53675 30591
L53708 30575
L53725 30558
L53741 30525
L53741 30441
L53725 30408
L53708 30391
" />
<path d="M53725 30725
L53741 30775
L53741 30858
L53725 30891
L53708 30908
L53675 30925
L53641 30925
L53608 30908
L53591 30891
L53575 30858
L53558 30791
L53541 30758
L53525 30741
L53491 30725
L53458 30725
L53425 30741
L53408 30758
L53391 30791
L53391 30875
L53408 30925
" />
<path d="M53725 31058
L53741 31108
L53741 31191
L53725 31225
L53708 31241
L53675 31258
L53641 31258
L53608 31241
L53591 31225
L53575 31191
L53558 31125
L53541 31091
L53525 31075
L53491 31058
L53458 31058
L53425 31075
L53408 31091
L53391 31125
L53391 31208
L53408 31258
" />
<path d="M53725 31391
L53741 31441
L53741 31525
L53725 31558
L53708 31575
L53675 31591
L53641 31591
L53608 31575
L53591 31558
L53575 31525
L53558 31458
L53541 31425
L53525 31408
L53491 31391
L53458 31391
L53425 31408
L53408 31425
L53391 31458
L53391 31541
L53408 31591
" />
<path d="M53608 31741
L53608 32008
" />
<path d="M53741 32358
L53741 32158
" />
<path d="M53741 32258
L53391 32258
L53441 32225
L53475 32191
L53491 32158
" />
<path d="M53391 32475
L53391 32691
L53525 32575
L53525 32625
L53541 32658
L53558 32675
L53591 32691
L53675 32691
L53708 32675
L53725 32658
L53741 32625
L53741 32525
L53725 32491
L53708 32475
" />
<path d="M54575 32528
L54553 32485
L54510 32442
L54446 32378
L54425 32335
L54425 32292
" />
<path d="M54532 32314
L54510 32271
L54467 32228
L54382 32207
L54232 32207
L54146 32228
L54103 32271
L54082 32314
L54082 32400
L54103 32442
L54146 32485
L54232 32507
L54382 32507
L54467 32485
L54510 32442
L54532 32400
L54532 32314
" />
<path d="M54532 32935
L54532 32678
" />
<path d="M54532 32807
L54082 32807
L54146 32764
L54189 32721
L54210 32678
" />
<path d="M54082 33214
L54082 33257
L54103 33300
L54125 33321
L54167 33342
L54253 33364
L54360 33364
L54446 33342
L54489 33321
L54510 33300
L54532 33257
L54532 33214
L54510 33171
L54489 33150
L54446 33128
L54360 33107
L54253 33107
L54167 33128
L54125 33150
L54103 33171
L54082 33214
" />
<path d="M54082 33514
L54082 33792
L54253 33642
L54253 33707
L54275 33750
L54296 33771
L54339 33792
L54446 33792
L54489 33771
L54510 33750
L54532 33707
L54532 33578
L54510 33535
L54489 33514
" />
<path d="M53741 30824
L53391 30824
L53391 30908
L53408 30958
L53441 30991
L53475 31008
L53541 31024
L53591 31024
L53658 31008
L53691 30991
L53725 30958
L53741 30908
L53741 30824
" />
<path d="M53741 31174
L53391 31174
L53641 31291
L53391 31408
L53741 31408
" />
<path d="M53725 31558
L53741 31608
L53741 31691
L53725 31724
L53708 31741
L53675 31758
L53641 31758
L53608 31741
L53591 31724
L53575 31691
L53558 31624
L53541 31591
L53525 31574
L53491 31558
L53458 31558
L53425 31574
L53408 31591
L53391 31624
L53391 31708
L53408 31758
" />
<path d="M53391 31874
L53391 32091
L53525 31974
L53525 32024
L53541 32058
L53558 32074
L53591 32091
L53675 32091
L53708 32074
L53725 32058
L53741 32024
L53741 31924
L53725 31891
L53708 31874
" />
<path d="M53391 32308
L53391 32341
L53408 32374
L53425 32391
L53458 32408
L53525 32424
L53608 32424
L53675 32408
L53708 32391
L53725 32374
L53741 32341
L53741 32308
L53725 32274
L53708 32258
L53675 32241
L53608 32224
L53525 32224
L53458 32241
L53425 32258
L53408 32274
L53391 32308
" />
<path d="M53741 32758
L53741 32558
" />
<path d="M53741 32658
L53391 32658
L53441 32625
L53475 32591
L53491 32558
" />
<path d="M53391 33075
L53391 32908
L53558 32891
L53541 32908
L53525 32941
L53525 33025
L53541 33058
L53558 33075
L53591 33091
L53675 33091
L53708 33075
L53725 33058
L53741 33025
L53741 32941
L53725 32908
L53708 32891
" />
<path d="M53725 33225
L53741 33275
L53741 33358
L53725 33391
L53708 33408
L53675 33425
L53641 33425
L53608 33408
L53591 33391
L53575 33358
L53558 33291
L53541 33258
L53525 33241
L53491 33225
L53458 33225
L53425 33241
L53408 33258
L53391 33291
L53391 33375
L53408 33425
" />
<path d="M53725 33558
L53741 33608
L53741 33691
L53725 33725
L53708 33741
L53675 33758
L53641 33758
L53608 33741
L53591 33725
L53575 33691
L53558 33625
L53541 33591
L53525 33575
L53491 33558
L53458 33558
L53425 33575
L53408 33591
L53391 33625
L53391 33708
L53408 33758
" />
<path d="M53725 33891
L53741 33941
L53741 34025
L53725 34058
L53708 34075
L53675 34091
L53641 34091
L53608 34075
L53591 34058
L53575 34025
L53558 33958
L53541 33925
L53525 33908
L53491 33891
L53458 33891
L53425 33908
L53408 33925
L53391 33958
L53391 34041
L53408 34091
" />
<path d="M53608 34241
L53608 34508
" />
<path d="M53741 34858
L53741 34658
" />
<path d="M53741 34758
L53391 34758
L53441 34725
L53475 34691
L53491 34658
" />
<path d="M53391 34975
L53391 35191
L53525 35075
L53525 35125
L53541 35158
L53558 35175
L53591 35191
L53675 35191
L53708 35175
L53725 35158
L53741 35125
L53741 35025
L53725 34991
L53708 34975
" />
<path d="M54575 35028
L54553 34985
L54510 34942
L54446 34878
L54425 34835
L54425 34792
" />
<path d="M54532 34814
L54510 34771
L54467 34728
L54382 34707
L54232 34707
L54146 34728
L54103 34771
L54082 34814
L54082 34900
L54103 34942
L54146 34985
L54232 35007
L54382 35007
L54467 34985
L54510 34942
L54532 34900
L54532 34814
" />
<path d="M54532 35435
L54532 35178
" />
<path d="M54532 35307
L54082 35307
L54146 35264
L54189 35221
L54210 35178
" />
<path d="M54082 35714
L54082 35757
L54103 35800
L54125 35821
L54167 35842
L54253 35864
L54360 35864
L54446 35842
L54489 35821
L54510 35800
L54532 35757
L54532 35714
L54510 35671
L54489 35650
L54446 35628
L54360 35607
L54253 35607
L54167 35628
L54125 35650
L54103 35671
L54082 35714
" />
<path d="M54232 36250
L54532 36250
" />
<path d="M54060 36142
L54382 36035
L54382 36314
" />
<path d="M53741 33324
L53391 33324
L53391 33408
L53408 33458
L53441 33491
L53475 33508
L53541 33524
L53591 33524
L53658 33508
L53691 33491
L53725 33458
L53741 33408
L53741 33324
" />
<path d="M53741 33674
L53391 33674
L53641 33791
L53391 33908
L53741 33908
" />
<path d="M53725 34058
L53741 34108
L53741 34191
L53725 34224
L53708 34241
L53675 34258
L53641 34258
L53608 34241
L53591 34224
L53575 34191
L53558 34124
L53541 34091
L53525 34074
L53491 34058
L53458 34058
L53425 34074
L53408 34091
L53391 34124
L53391 34208
L53408 34258
" />
<path d="M53391 34374
L53391 34591
L53525 34474
L53525 34524
L53541 34558
L53558 34574
L53591 34591
L53675 34591
L53708 34574
L53725 34558
L53741 34524
L53741 34424
L53725 34391
L53708 34374
" />
<path d="M53391 34808
L53391 34841
L53408 34874
L53425 34891
L53458 34908
L53525 34924
L53608 34924
L53675 34908
L53708 34891
L53725 34874
L53741 34841
L53741 34808
L53725 34774
L53708 34758
L53675 34741
L53608 34724
L53525 34724
L53458 34741
L53425 34758
L53408 34774
L53391 34808
" />
<path d="M53741 35258
L53741 35058
" />
<path d="M53741 35158
L53391 35158
L53441 35125
L53475 35091
L53491 35058
" />
<path d="M53391 35575
L53391 35408
L53558 35391
L53541 35408
L53525 35441
L53525 35525
L53541 35558
L53558 35575
L53591 35591
L53675 35591
L53708 35575
L53725 35558
L53741 35525
L53741 35441
L53725 35408
L53708 35391
" />
<path d="M53725 35725
L53741 35775
L53741 35858
L53725 35891
L53708 35908
L53675 35925
L53641 35925
L53608 35908
L53591 35891
L53575 35858
L53558 35791
L53541 35758
L53525 35741
L53491 35725
L53458 35725
L53425 35741
L53408 35758
L53391 35791
L53391 35875
L53408 35925
" />
<path d="M53725 36058
L53741 36108
L53741 36191
L53725 36225
L53708 36241
L53675 36258
L53641 36258
L53608 36241
L53591 36225
L53575 36191
L53558 36125
L53541 36091
L53525 36075
L53491 36058
L53458 36058
L53425 36075
L53408 36091
L53391 36125
L53391 36208
L53408 36258
" />
<path d="M53725 36391
L53741 36441
L53741 36525
L53725 36558
L53708 36575
L53675 36591
L53641 36591
L53608 36575
L53591 36558
L53575 36525
L53558 36458
L53541 36425
L53525 36408
L53491 36391
L53458 36391
L53425 36408
L53408 36425
L53391 36458
L53391 36541
L53408 36591
" />
<path d="M53608 36741
L53608 37008
" />
<path d="M53741 37358
L53741 37158
" />
<path d="M53741 37258
L53391 37258
L53441 37225
L53475 37191
L53491 37158
" />
<path d="M53391 37475
L53391 37691
L53525 37575
L53525 37625
L53541 37658
L53558 37675
L53591 37691
L53675 37691
L53708 37675
L53725 37658
L53741 37625
L53741 37525
L53725 37491
L53708 37475
" />
<path d="M40875 35028
L40853 34985
L40810 34942
L40746 34878
L40725 34835
L40725 34792
" />
<path d="M40832 34814
L40810 34771
L40767 34728
L40682 34707
L40532 34707
L40446 34728
L40403 34771
L40382 34814
L40382 34900
L40403 34942
L40446 34985
L40532 35007
L40682 35007
L40767 34985
L40810 34942
L40832 34900
L40832 34814
" />
<path d="M40832 35435
L40832 35178
" />
<path d="M40832 35307
L40382 35307
L40446 35264
L40489 35221
L40510 35178
" />
<path d="M40382 35714
L40382 35757
L40403 35800
L40425 35821
L40467 35842
L40553 35864
L40660 35864
L40746 35842
L40789 35821
L40810 35800
L40832 35757
L40832 35714
L40810 35671
L40789 35650
L40746 35628
L40660 35607
L40553 35607
L40467 35628
L40425 35650
L40403 35671
L40382 35714
" />
<path d="M40382 36271
L40382 36057
L40596 36035
L40575 36057
L40553 36100
L40553 36207
L40575 36250
L40596 36271
L40639 36292
L40746 36292
L40789 36271
L40810 36250
L40832 36207
L40832 36100
L40810 36057
L40789 36035
" />
<path d="M41541 33324
L41191 33324
L41191 33408
L41208 33458
L41241 33491
L41275 33508
L41341 33524
L41391 33524
L41458 33508
L41491 33491
L41525 33458
L41541 33408
L41541 33324
" />
<path d="M41541 33674
L41191 33674
L41441 33791
L41191 33908
L41541 33908
" />
<path d="M41525 34058
L41541 34108
L41541 34191
L41525 34224
L41508 34241
L41475 34258
L41441 34258
L41408 34241
L41391 34224
L41375 34191
L41358 34124
L41341 34091
L41325 34074
L41291 34058
L41258 34058
L41225 34074
L41208 34091
L41191 34124
L41191 34208
L41208 34258
" />
<path d="M41191 34374
L41191 34591
L41325 34474
L41325 34524
L41341 34558
L41358 34574
L41391 34591
L41475 34591
L41508 34574
L41525 34558
L41541 34524
L41541 34424
L41525 34391
L41508 34374
" />
<path d="M41191 34808
L41191 34841
L41208 34874
L41225 34891
L41258 34908
L41325 34924
L41408 34924
L41475 34908
L41508 34891
L41525 34874
L41541 34841
L41541 34808
L41525 34774
L41508 34758
L41475 34741
L41408 34724
L41325 34724
L41258 34741
L41225 34758
L41208 34774
L41191 34808
" />
<path d="M41541 35258
L41541 35058
" />
<path d="M41541 35158
L41191 35158
L41241 35125
L41275 35091
L41291 35058
" />
<path d="M41191 35575
L41191 35408
L41358 35391
L41341 35408
L41325 35441
L41325 35525
L41341 35558
L41358 35575
L41391 35591
L41475 35591
L41508 35575
L41525 35558
L41541 35525
L41541 35441
L41525 35408
L41508 35391
" />
<path d="M41525 35725
L41541 35775
L41541 35858
L41525 35891
L41508 35908
L41475 35925
L41441 35925
L41408 35908
L41391 35891
L41375 35858
L41358 35791
L41341 35758
L41325 35741
L41291 35725
L41258 35725
L41225 35741
L41208 35758
L41191 35791
L41191 35875
L41208 35925
" />
<path d="M41525 36058
L41541 36108
L41541 36191
L41525 36225
L41508 36241
L41475 36258
L41441 36258
L41408 36241
L41391 36225
L41375 36191
L41358 36125
L41341 36091
L41325 36075
L41291 36058
L41258 36058
L41225 36075
L41208 36091
L41191 36125
L41191 36208
L41208 36258
" />
<path d="M41525 36391
L41541 36441
L41541 36525
L41525 36558
L41508 36575
L41475 36591
L41441 36591
L41408 36575
L41391 36558
L41375 36525
L41358 36458
L41341 36425
L41325 36408
L41291 36391
L41258 36391
L41225 36408
L41208 36425
L41191 36458
L41191 36541
L41208 36591
" />
<path d="M41408 36741
L41408 37008
" />
<path d="M41541 37358
L41541 37158
" />
<path d="M41541 37258
L41191 37258
L41241 37225
L41275 37191
L41291 37158
" />
<path d="M41191 37475
L41191 37691
L41325 37575
L41325 37625
L41341 37658
L41358 37675
L41391 37691
L41475 37691
L41508 37675
L41525 37658
L41541 37625
L41541 37525
L41525 37491
L41508 37475
" />
<path d="M40875 32528
L40853 32485
L40810 32442
L40746 32378
L40725 32335
L40725 32292
" />
<path d="M40832 32314
L40810 32271
L40767 32228
L40682 32207
L40532 32207
L40446 32228
L40403 32271
L40382 32314
L40382 32400
L40403 32442
L40446 32485
L40532 32507
L40682 32507
L40767 32485
L40810 32442
L40832 32400
L40832 32314
" />
<path d="M40832 32935
L40832 32678
" />
<path d="M40832 32807
L40382 32807
L40446 32764
L40489 32721
L40510 32678
" />
<path d="M40382 33214
L40382 33257
L40403 33300
L40425 33321
L40467 33342
L40553 33364
L40660 33364
L40746 33342
L40789 33321
L40810 33300
L40832 33257
L40832 33214
L40810 33171
L40789 33150
L40746 33128
L40660 33107
L40553 33107
L40467 33128
L40425 33150
L40403 33171
L40382 33214
" />
<path d="M40382 33750
L40382 33664
L40403 33621
L40425 33600
L40489 33557
L40575 33535
L40746 33535
L40789 33557
L40810 33578
L40832 33621
L40832 33707
L40810 33750
L40789 33771
L40746 33792
L40639 33792
L40596 33771
L40575 33750
L40553 33707
L40553 33621
L40575 33578
L40596 33557
L40639 33535
" />
<path d="M41541 30824
L41191 30824
L41191 30908
L41208 30958
L41241 30991
L41275 31008
L41341 31024
L41391 31024
L41458 31008
L41491 30991
L41525 30958
L41541 30908
L41541 30824
" />
<path d="M41541 31174
L41191 31174
L41441 31291
L41191 31408
L41541 31408
" />
<path d="M41525 31558
L41541 31608
L41541 31691
L41525 31724
L41508 31741
L41475 31758
L41441 31758
L41408 31741
L41391 31724
L41375 31691
L41358 31624
L41341 31591
L41325 31574
L41291 31558
L41258 31558
L41225 31574
L41208 31591
L41191 31624
L41191 31708
L41208 31758
" />
<path d="M41191 31874
L41191 32091
L41325 31974
L41325 32024
L41341 32058
L41358 32074
L41391 32091
L41475 32091
L41508 32074
L41525 32058
L41541 32024
L41541 31924
L41525 31891
L41508 31874
" />
<path d="M41191 32308
L41191 32341
L41208 32374
L41225 32391
L41258 32408
L41325 32424
L41408 32424
L41475 32408
L41508 32391
L41525 32374
L41541 32341
L41541 32308
L41525 32274
L41508 32258
L41475 32241
L41408 32224
L41325 32224
L41258 32241
L41225 32258
L41208 32274
L41191 32308
" />
<path d="M41541 32758
L41541 32558
" />
<path d="M41541 32658
L41191 32658
L41241 32625
L41275 32591
L41291 32558
" />
<path d="M41191 33075
L41191 32908
L41358 32891
L41341 32908
L41325 32941
L41325 33025
L41341 33058
L41358 33075
L41391 33091
L41475 33091
L41508 33075
L41525 33058
L41541 33025
L41541 32941
L41525 32908
L41508 32891
" />
<path d="M41525 33225
L41541 33275
L41541 33358
L41525 33391
L41508 33408
L41475 33425
L41441 33425
L41408 33408
L41391 33391
L41375 33358
L41358 33291
L41341 33258
L41325 33241
L41291 33225
L41258 33225
L41225 33241
L41208 33258
L41191 33291
L41191 33375
L41208 33425
" />
<path d="M41525 33558
L41541 33608
L41541 33691
L41525 33725
L41508 33741
L41475 33758
L41441 33758
L41408 33741
L41391 33725
L41375 33691
L41358 33625
L41341 33591
L41325 33575
L41291 33558
L41258 33558
L41225 33575
L41208 33591
L41191 33625
L41191 33708
L41208 33758
" />
<path d="M41525 33891
L41541 33941
L41541 34025
L41525 34058
L41508 34075
L41475 34091
L41441 34091
L41408 34075
L41391 34058
L41375 34025
L41358 33958
L41341 33925
L41325 33908
L41291 33891
L41258 33891
L41225 33908
L41208 33925
L41191 33958
L41191 34041
L41208 34091
" />
<path d="M41408 34241
L41408 34508
" />
<path d="M41541 34858
L41541 34658
" />
<path d="M41541 34758
L41191 34758
L41241 34725
L41275 34691
L41291 34658
" />
<path d="M41191 34975
L41191 35191
L41325 35075
L41325 35125
L41341 35158
L41358 35175
L41391 35191
L41475 35191
L41508 35175
L41525 35158
L41541 35125
L41541 35025
L41525 34991
L41508 34975
" />
<path d="M40875 30028
L40853 29985
L40810 29942
L40746 29878
L40725 29835
L40725 29792
" />
<path d="M40832 29814
L40810 29771
L40767 29728
L40682 29707
L40532 29707
L40446 29728
L40403 29771
L40382 29814
L40382 29900
L40403 29942
L40446 29985
L40532 30007
L40682 30007
L40767 29985
L40810 29942
L40832 29900
L40832 29814
" />
<path d="M40832 30435
L40832 30178
" />
<path d="M40832 30307
L40382 30307
L40446 30264
L40489 30221
L40510 30178
" />
<path d="M40382 30714
L40382 30757
L40403 30800
L40425 30821
L40467 30842
L40553 30864
L40660 30864
L40746 30842
L40789 30821
L40810 30800
L40832 30757
L40832 30714
L40810 30671
L40789 30650
L40746 30628
L40660 30607
L40553 30607
L40467 30628
L40425 30650
L40403 30671
L40382 30714
" />
<path d="M40382 31014
L40382 31314
L40832 31121
" />
<path d="M41541 28324
L41191 28324
L41191 28408
L41208 28458
L41241 28491
L41275 28508
L41341 28524
L41391 28524
L41458 28508
L41491 28491
L41525 28458
L41541 28408
L41541 28324
" />
<path d="M41541 28674
L41191 28674
L41441 28791
L41191 28908
L41541 28908
" />
<path d="M41525 29058
L41541 29108
L41541 29191
L41525 29224
L41508 29241
L41475 29258
L41441 29258
L41408 29241
L41391 29224
L41375 29191
L41358 29124
L41341 29091
L41325 29074
L41291 29058
L41258 29058
L41225 29074
L41208 29091
L41191 29124
L41191 29208
L41208 29258
" />
<path d="M41191 29374
L41191 29591
L41325 29474
L41325 29524
L41341 29558
L41358 29574
L41391 29591
L41475 29591
L41508 29574
L41525 29558
L41541 29524
L41541 29424
L41525 29391
L41508 29374
" />
<path d="M41191 29808
L41191 29841
L41208 29874
L41225 29891
L41258 29908
L41325 29924
L41408 29924
L41475 29908
L41508 29891
L41525 29874
L41541 29841
L41541 29808
L41525 29774
L41508 29758
L41475 29741
L41408 29724
L41325 29724
L41258 29741
L41225 29758
L41208 29774
L41191 29808
" />
<path d="M41541 30258
L41541 30058
" />
<path d="M41541 30158
L41191 30158
L41241 30125
L41275 30091
L41291 30058
" />
<path d="M41191 30575
L41191 30408
L41358 30391
L41341 30408
L41325 30441
L41325 30525
L41341 30558
L41358 30575
L41391 30591
L41475 30591
L41508 30575
L41525 30558
L41541 30525
L41541 30441
L41525 30408
L41508 30391
" />
<path d="M41525 30725
L41541 30775
L41541 30858
L41525 30891
L41508 30908
L41475 30925
L41441 30925
L41408 30908
L41391 30891
L41375 30858
L41358 30791
L41341 30758
L41325 30741
L41291 30725
L41258 30725
L41225 30741
L41208 30758
L41191 30791
L41191 30875
L41208 30925
" />
<path d="M41525 31058
L41541 31108
L41541 31191
L41525 31225
L41508 31241
L41475 31258
L41441 31258
L41408 31241
L41391 31225
L41375 31191
L41358 31125
L41341 31091
L41325 31075
L41291 31058
L41258 31058
L41225 31075
L41208 31091
L41191 31125
L41191 31208
L41208 31258
" />
<path d="M41525 31391
L41541 31441
L41541 31525
L41525 31558
L41508 31575
L41475 31591
L41441 31591
L41408 31575
L41391 31558
L41375 31525
L41358 31458
L41341 31425
L41325 31408
L41291 31391
L41258 31391
L41225 31408
L41208 31425
L41191 31458
L41191 31541
L41208 31591
" />
<path d="M41408 31741
L41408 32008
" />
<path d="M41541 32358
L41541 32158
" />
<path d="M41541 32258
L41191 32258
L41241 32225
L41275 32191
L41291 32158
" />
<path d="M41191 32475
L41191 32691
L41325 32575
L41325 32625
L41341 32658
L41358 32675
L41391 32691
L41475 32691
L41508 32675
L41525 32658
L41541 32625
L41541 32525
L41525 32491
L41508 32475
" />
<path d="M40875 27528
L40853 27485
L40810 27442
L40746 27378
L40725 27335
L40725 27292
" />
<path d="M40832 27314
L40810 27271
L40767 27228
L40682 27207
L40532 27207
L40446 27228
L40403 27271
L40382 27314
L40382 27400
L40403 27442
L40446 27485
L40532 27507
L40682 27507
L40767 27485
L40810 27442
L40832 27400
L40832 27314
" />
<path d="M40832 27935
L40832 27678
" />
<path d="M40832 27807
L40382 27807
L40446 27764
L40489 27721
L40510 27678
" />
<path d="M40382 28214
L40382 28257
L40403 28300
L40425 28321
L40467 28342
L40553 28364
L40660 28364
L40746 28342
L40789 28321
L40810 28300
L40832 28257
L40832 28214
L40810 28171
L40789 28150
L40746 28128
L40660 28107
L40553 28107
L40467 28128
L40425 28150
L40403 28171
L40382 28214
" />
<path d="M40575 28621
L40553 28578
L40532 28557
L40489 28535
L40467 28535
L40425 28557
L40403 28578
L40382 28621
L40382 28707
L40403 28750
L40425 28771
L40467 28792
L40489 28792
L40532 28771
L40553 28750
L40575 28707
L40575 28621
L40596 28578
L40617 28557
L40660 28535
L40746 28535
L40789 28557
L40810 28578
L40832 28621
L40832 28707
L40810 28750
L40789 28771
L40746 28792
L40660 28792
L40617 28771
L40596 28750
L40575 28707
" />
<path d="M41541 25824
L41191 25824
L41191 25908
L41208 25958
L41241 25991
L41275 26008
L41341 26024
L41391 26024
L41458 26008
L41491 25991
L41525 25958
L41541 25908
L41541 25824
" />
<path d="M41541 26174
L41191 26174
L41441 26291
L41191 26408
L41541 26408
" />
<path d="M41525 26558
L41541 26608
L41541 26691
L41525 26724
L41508 26741
L41475 26758
L41441 26758
L41408 26741
L41391 26724
L41375 26691
L41358 26624
L41341 26591
L41325 26574
L41291 26558
L41258 26558
L41225 26574
L41208 26591
L41191 26624
L41191 26708
L41208 26758
" />
<path d="M41191 26874
L41191 27091
L41325 26974
L41325 27024
L41341 27058
L41358 27074
L41391 27091
L41475 27091
L41508 27074
L41525 27058
L41541 27024
L41541 26924
L41525 26891
L41508 26874
" />
<path d="M41191 27308
L41191 27341
L41208 27374
L41225 27391
L41258 27408
L41325 27424
L41408 27424
L41475 27408
L41508 27391
L41525 27374
L41541 27341
L41541 27308
L41525 27274
L41508 27258
L41475 27241
L41408 27224
L41325 27224
L41258 27241
L41225 27258
L41208 27274
L41191 27308
" />
<path d="M41541 27758
L41541 27558
" />
<path d="M41541 27658
L41191 27658
L41241 27625
L41275 27591
L41291 27558
" />
<path d="M41191 28075
L41191 27908
L41358 27891
L41341 27908
L41325 27941
L41325 28025
L41341 28058
L41358 28075
L41391 28091
L41475 28091
L41508 28075
L41525 28058
L41541 28025
L41541 27941
L41525 27908
L41508 27891
" />
<path d="M41525 28225
L41541 28275
L41541 28358
L41525 28391
L41508 28408
L41475 28425
L41441 28425
L41408 28408
L41391 28391
L41375 28358
L41358 28291
L41341 28258
L41325 28241
L41291 28225
L41258 28225
L41225 28241
L41208 28258
L41191 28291
L41191 28375
L41208 28425
" />
<path d="M41525 28558
L41541 28608
L41541 28691
L41525 28725
L41508 28741
L41475 28758
L41441 28758
L41408 28741
L41391 28725
L41375 28691
L41358 28625
L41341 28591
L41325 28575
L41291 28558
L41258 28558
L41225 28575
L41208 28591
L41191 28625
L41191 28708
L41208 28758
" />
<path d="M41525 28891
L41541 28941
L41541 29025
L41525 29058
L41508 29075
L41475 29091
L41441 29091
L41408 29075
L41391 29058
L41375 29025
L41358 28958
L41341 28925
L41325 28908
L41291 28891
L41258 28891
L41225 28908
L41208 28925
L41191 28958
L41191 29041
L41208 29091
" />
<path d="M41408 29241
L41408 29508
" />
<path d="M41541 29858
L41541 29658
" />
<path d="M41541 29758
L41191 29758
L41241 29725
L41275 29691
L41291 29658
" />
<path d="M41191 29975
L41191 30191
L41325 30075
L41325 30125
L41341 30158
L41358 30175
L41391 30191
L41475 30191
L41508 30175
L41525 30158
L41541 30125
L41541 30025
L41525 29991
L41508 29975
" />
</g>
<g style="fill:#9F009F; fill-opacity:0.0; 
stroke:#9F009F; stroke-width:50; stroke-opacity:1; 
stroke-linecap:round; stroke-linejoin:round;">
<path d="M45101 31720
L44982 31636
" />
<path d="M45101 31577
L44851 31577
L44851 31672
L44863 31696
L44875 31708
L44898 31720
L44934 31720
L44958 31708
L44970 31696
L44982 31672
L44982 31577
" />
<path d="M45101 31958
L45101 31815
" />
<path d="M45101 31886
L44851 31886
L44886 31863
L44910 31839
L44922 31815
" />
<path d="M44851 32113
L44851 32136
L44863 32160
L44875 32172
L44898 32184
L44946 32196
L45005 32196
L45053 32184
L45077 32172
L45089 32160
L45101 32136
L45101 32113
L45089 32089
L45077 32077
L45053 32065
L45005 32053
L44946 32053
L44898 32065
L44875 32077
L44863 32089
L44851 32113
" />
<path d="M44851 32279
L44851 32446
L45101 32339
" />
<path d="M45101 33720
L44982 33636
" />
<path d="M45101 33577
L44851 33577
L44851 33672
L44863 33696
L44875 33708
L44898 33720
L44934 33720
L44958 33708
L44970 33696
L44982 33672
L44982 33577
" />
<path d="M45101 33958
L45101 33815
" />
<path d="M45101 33886
L44851 33886
L44886 33863
L44910 33839
L44922 33815
" />
<path d="M44851 34113
L44851 34136
L44863 34160
L44875 34172
L44898 34184
L44946 34196
L45005 34196
L45053 34184
L45077 34172
L45089 34160
L45101 34136
L45101 34113
L45089 34089
L45077 34077
L45053 34065
L45005 34053
L44946 34053
L44898 34065
L44875 34077
L44863 34089
L44851 34113
" />
<path d="M44851 34410
L44851 34363
L44863 34339
L44875 34327
L44910 34303
L44958 34291
L45053 34291
L45077 34303
L45089 34315
L45101 34339
L45101 34386
L45089 34410
L45077 34422
L45053 34434
L44994 34434
L44970 34422
L44958 34410
L44946 34386
L44946 34339
L44958 34315
L44970 34303
L44994 34291
" />
<path d="M45101 35720
L44982 35636
" />
<path d="M45101 35577
L44851 35577
L44851 35672
L44863 35696
L44875 35708
L44898 35720
L44934 35720
L44958 35708
L44970 35696
L44982 35672
L44982 35577
" />
<path d="M45101 35958
L45101 35815
" />
<path d="M45101 35886
L44851 35886
L44886 35863
L44910 35839
L44922 35815
" />
<path d="M44851 36113
L44851 36136
L44863 36160
L44875 36172
L44898 36184
L44946 36196
L45005 36196
L45053 36184
L45077 36172
L45089 36160
L45101 36136
L45101 36113
L45089 36089
L45077 36077
L45053 36065
L45005 36053
L44946 36053
L44898 36065
L44875 36077
L44863 36089
L44851 36113
" />
<path d="M44851 36422
L44851 36303
L44970 36291
L44958 36303
L44946 36327
L44946 36386
L44958 36410
L44970 36422
L44994 36434
L45053 36434
L45077 36422
L45089 36410
L45101 36386
L45101 36327
L45089 36303
L45077 36291
" />
<path d="M50101 35720
L49982 35636
" />
<path d="M50101 35577
L49851 35577
L49851 35672
L49863 35696
L49875 35708
L49898 35720
L49934 35720
L49958 35708
L49970 35696
L49982 35672
L49982 35577
" />
<path d="M50101 35958
L50101 35815
" />
<path d="M50101 35886
L49851 35886
L49886 35863
L49910 35839
L49922 35815
" />
<path d="M49851 36113
L49851 36136
L49863 36160
L49875 36172
L49898 36184
L49946 36196
L50005 36196
L50053 36184
L50077 36172
L50089 36160
L50101 36136
L50101 36113
L50089 36089
L50077 36077
L50053 36065
L50005 36053
L49946 36053
L49898 36065
L49875 36077
L49863 36089
L49851 36113
" />
<path d="M49934 36410
L50101 36410
" />
<path d="M49839 36351
L50017 36291
L50017 36446
" />
<path d="M50101 33720
L49982 33636
" />
<path d="M50101 33577
L49851 33577
L49851 33672
L49863 33696
L49875 33708
L49898 33720
L49934 33720
L49958 33708
L49970 33696
L49982 33672
L49982 33577
" />
<path d="M50101 33958
L50101 33815
" />
<path d="M50101 33886
L49851 33886
L49886 33863
L49910 33839
L49922 33815
" />
<path d="M49851 34113
L49851 34136
L49863 34160
L49875 34172
L49898 34184
L49946 34196
L50005 34196
L50053 34184
L50077 34172
L50089 34160
L50101 34136
L50101 34113
L50089 34089
L50077 34077
L50053 34065
L50005 34053
L49946 34053
L49898 34065
L49875 34077
L49863 34089
L49851 34113
" />
<path d="M49851 34279
L49851 34434
L49946 34351
L49946 34386
L49958 34410
L49970 34422
L49994 34434
L50053 34434
L50077 34422
L50089 34410
L50101 34386
L50101 34315
L50089 34291
L50077 34279
" />
<path d="M50101 31720
L49982 31636
" />
<path d="M50101 31577
L49851 31577
L49851 31672
L49863 31696
L49875 31708
L49898 31720
L49934 31720
L49958 31708
L49970 31696
L49982 31672
L49982 31577
" />
<path d="M50101 31958
L50101 31815
" />
<path d="M50101 31886
L49851 31886
L49886 31863
L49910 31839
L49922 31815
" />
<path d="M49851 32113
L49851 32136
L49863 32160
L49875 32172
L49898 32184
L49946 32196
L50005 32196
L50053 32184
L50077 32172
L50089 32160
L50101 32136
L50101 32113
L50089 32089
L50077 32077
L50053 32065
L50005 32053
L49946 32053
L49898 32065
L49875 32077
L49863 32089
L49851 32113
" />
<path d="M49875 32291
L49863 32303
L49851 32327
L49851 32386
L49863 32410
L49875 32422
L49898 32434
L49922 32434
L49958 32422
L50101 32279
L50101 32434
" />
<path d="M50279 30101
L50363 29982
" />
<path d="M50422 30101
L50422 29851
L50327 29851
L50303 29863
L50291 29875
L50279 29898
L50279 29934
L50291 29958
L50303 29970
L50327 29982
L50422 29982
" />
<path d="M50041 30101
L50184 30101
" />
<path d="M50113 30101
L50113 29851
L50136 29886
L50160 29910
L50184 29922
" />
<path d="M49886 29851
L49863 29851
L49839 29863
L49827 29875
L49815 29898
L49803 29946
L49803 30005
L49815 30053
L49827 30077
L49839 30089
L49863 30101
L49886 30101
L49910 30089
L49922 30077
L49934 30053
L49946 30005
L49946 29946
L49934 29898
L49922 29875
L49910 29863
L49886 29851
" />
<path d="M49565 30101
L49708 30101
" />
<path d="M49636 30101
L49636 29851
L49660 29886
L49684 29910
L49708 29922
" />
<path d="M45101 29720
L44982 29636
" />
<path d="M45101 29577
L44851 29577
L44851 29672
L44863 29696
L44875 29708
L44898 29720
L44934 29720
L44958 29708
L44970 29696
L44982 29672
L44982 29577
" />
<path d="M45101 29958
L45101 29815
" />
<path d="M45101 29886
L44851 29886
L44886 29863
L44910 29839
L44922 29815
" />
<path d="M44851 30113
L44851 30136
L44863 30160
L44875 30172
L44898 30184
L44946 30196
L45005 30196
L45053 30184
L45077 30172
L45089 30160
L45101 30136
L45101 30113
L45089 30089
L45077 30077
L45053 30065
L45005 30053
L44946 30053
L44898 30065
L44875 30077
L44863 30089
L44851 30113
" />
<path d="M44958 30339
L44946 30315
L44934 30303
L44910 30291
L44898 30291
L44875 30303
L44863 30315
L44851 30339
L44851 30386
L44863 30410
L44875 30422
L44898 30434
L44910 30434
L44934 30422
L44946 30410
L44958 30386
L44958 30339
L44970 30315
L44982 30303
L45005 30291
L45053 30291
L45077 30303
L45089 30315
L45101 30339
L45101 30386
L45089 30410
L45077 30422
L45053 30434
L45005 30434
L44982 30422
L44970 30410
L44958 30386
" />
</g>
<g style="fill:#9F009F; fill-opacity:0.0; 
stroke:#9F009F; stroke-width:35; stroke-opacity:1; 
stroke-linecap:round; stroke-linejoin:round;">
<path d="M40107 36952
L40107 37357
L40083 37404
L40059 37428
L40011 37452
L39916 37452
L39869 37428
L39845 37404
L39821 37357
L39821 36952
" />
<path d="M39321 37452
L39607 37452
" />
<path d="M39464 37452
L39464 36952
L39511 37023
L39559 37071
L39607 37095
" />
<path d="M39011 36952
L38964 36952
L38916 36976
L38892 37000
L38869 37047
L38845 37142
L38845 37261
L38869 37357
L38892 37404
L38916 37428
L38964 37452
L39011 37452
L39059 37428
L39083 37404
L39107 37357
L39130 37261
L39130 37142
L39107 37047
L39083 37000
L39059 36976
L39011 36952
" />
<path d="M38369 37452
L38654 37452
" />
<path d="M38511 37452
L38511 36952
L38559 37023
L38607 37071
L38654 37095
" />
<path d="M40595 40452
L40595 40857
L40571 40904
L40547 40928
L40500 40952
L40404 40952
L40357 40928
L40333 40904
L40309 40857
L40309 40452
" />
<path d="M40095 40809
L39857 40809
" />
<path d="M40142 40952
L39976 40452
L39809 40952
" />
<path d="M39690 40452
L39357 40452
L39571 40952
" />
<path d="M39095 40666
L39142 40642
L39166 40619
L39190 40571
L39190 40547
L39166 40500
L39142 40476
L39095 40452
L39000 40452
L38952 40476
L38928 40500
L38904 40547
L38904 40571
L38928 40619
L38952 40642
L39000 40666
L39095 40666
L39142 40690
L39166 40714
L39190 40761
L39190 40857
L39166 40904
L39142 40928
L39095 40952
L39000 40952
L38952 40928
L38928 40904
L38904 40857
L38904 40761
L38928 40714
L38952 40690
L39000 40666
" />
<path d="M38690 40952
L38690 40452
L38523 40809
L38357 40452
L38357 40952
" />
<path d="M38023 40452
L37976 40452
L37928 40476
L37904 40500
L37880 40547
L37857 40642
L37857 40761
L37880 40857
L37904 40904
L37928 40928
L37976 40952
L38023 40952
L38071 40928
L38095 40904
L38119 40857
L38142 40761
L38142 40642
L38119 40547
L38095 40500
L38071 40476
L38023 40452
" />
<path d="M37547 40452
L37500 40452
L37452 40476
L37428 40500
L37404 40547
L37380 40642
L37380 40761
L37404 40857
L37428 40904
L37452 40928
L37500 40952
L37547 40952
L37595 40928
L37619 40904
L37642 40857
L37666 40761
L37666 40642
L37642 40547
L37619 40500
L37595 40476
L37547 40452
" />
</g>
<g style="fill:#9F009F; fill-opacity:0.0; 
stroke:#9F009F; stroke-width:50; stroke-opacity:1; 
stroke-linecap:round; stroke-linejoin:round;">
<path d="M53300 29050
L53250 29050
" />
<path d="M53250 29050
L53250 26950
" />
<path d="M54750 26950
L54750 29050
" />
<path d="M54750 29050
L53300 29050
" />
<path d="M54200 29050
L54200 28850
" />
<path d="M54200 28850
L53800 28850
" />
<path d="M53800 28850
L53800 29050
" />
<path d="M54750 26950
L53250 26950
" />
<path d="M53300 31550
L53250 31550
" />
<path d="M53250 31550
L53250 29450
" />
<path d="M54750 29450
L54750 31550
" />
<path d="M54750 31550
L53300 31550
" />
<path d="M54200 31550
L54200 31350
" />
<path d="M54200 31350
L53800 31350
" />
<path d="M53800 31350
L53800 31550
" />
<path d="M54750 29450
L53250 29450
" />
<path d="M53300 34050
L53250 34050
" />
<path d="M53250 34050
L53250 31950
" />
<path d="M54750 31950
L54750 34050
" />
<path d="M54750 34050
L53300 34050
" />
<path d="M54200 34050
L54200 33850
" />
<path d="M54200 33850
L53800 33850
" />
<path d="M53800 33850
L53800 34050
" />
<path d="M54750 31950
L53250 31950
" />
<path d="M53300 36550
L53250 36550
" />
<path d="M53250 36550
L53250 34450
" />
<path d="M54750 34450
L54750 36550
" />
<path d="M54750 36550
L53300 36550
" />
<path d="M54200 36550
L54200 36350
" />
<path d="M54200 36350
L53800 36350
" />
<path d="M53800 36350
L53800 36550
" />
<path d="M54750 34450
L53250 34450
" />
<path d="M41700 34450
L41750 34450
" />
<path d="M41750 34450
L41750 36550
" />
<path d="M40250 36550
L40250 34450
" />
<path d="M40250 34450
L41700 34450
" />
<path d="M40800 34450
L40800 34650
" />
<path d="M40800 34650
L41200 34650
" />
<path d="M41200 34650
L41200 34450
" />
<path d="M40250 36550
L41750 36550
" />
<path d="M41700 31950
L41750 31950
" />
<path d="M41750 31950
L41750 34050
" />
<path d="M40250 34050
L40250 31950
" />
<path d="M40250 31950
L41700 31950
" />
<path d="M40800 31950
L40800 32150
" />
<path d="M40800 32150
L41200 32150
" />
<path d="M41200 32150
L41200 31950
" />
<path d="M40250 34050
L41750 34050
" />
<path d="M41700 29450
L41750 29450
" />
<path d="M41750 29450
L41750 31550
" />
<path d="M40250 31550
L40250 29450
" />
<path d="M40250 29450
L41700 29450
" />
<path d="M40800 29450
L40800 29650
" />
<path d="M40800 29650
L41200 29650
" />
<path d="M41200 29650
L41200 29450
" />
<path d="M40250 31550
L41750 31550
" />
<path d="M41700 26950
L41750 26950
" />
<path d="M41750 26950
L41750 29050
" />
<path d="M40250 29050
L40250 26950
" />
<path d="M40250 26950
L41700 26950
" />
<path d="M40800 26950
L40800 27150
" />
<path d="M40800 27150
L41200 27150
" />
<path d="M41200 27150
L41200 26950
" />
<path d="M40250 29050
L41750 29050
" />
<circle cx="45300" cy="31350" r="50" /> 
<path d="M45300 31800
L45300 31400
" />
<path d="M45300 31400
L44700 31400
" />
<path d="M44700 31400
L44700 31800
" />
<path d="M44700 32200
L44700 32600
" />
<path d="M44700 32600
L45300 32600
" />
<path d="M45300 32600
L45300 32200
" />
<circle cx="45300" cy="33350" r="50" /> 
<path d="M45300 33800
L45300 33400
" />
<path d="M45300 33400
L44700 33400
" />
<path d="M44700 33400
L44700 33800
" />
<path d="M44700 34200
L44700 34600
" />
<path d="M44700 34600
L45300 34600
" />
<path d="M45300 34600
L45300 34200
" />
<circle cx="44700" cy="36650" r="50" /> 
<path d="M44700 36200
L44700 36600
" />
<path d="M44700 36600
L45300 36600
" />
<path d="M45300 36600
L45300 36200
" />
<path d="M45300 35800
L45300 35400
" />
<path d="M45300 35400
L44700 35400
" />
<path d="M44700 35400
L44700 35800
" />
<circle cx="49700" cy="36650" r="50" /> 
<path d="M49700 36200
L49700 36600
" />
<path d="M49700 36600
L50300 36600
" />
<path d="M50300 36600
L50300 36200
" />
<path d="M50300 35800
L50300 35400
" />
<path d="M50300 35400
L49700 35400
" />
<path d="M49700 35400
L49700 35800
" />
<circle cx="50300" cy="33350" r="50" /> 
<path d="M50300 33800
L50300 33400
" />
<path d="M50300 33400
L49700 33400
" />
<path d="M49700 33400
L49700 33800
" />
<path d="M49700 34200
L49700 34600
" />
<path d="M49700 34600
L50300 34600
" />
<path d="M50300 34600
L50300 34200
" />
<circle cx="50300" cy="31350" r="50" /> 
<path d="M50300 31800
L50300 31400
" />
<path d="M50300 31400
L49700 31400
" />
<path d="M49700 31400
L49700 31800
" />
<path d="M49700 32200
L49700 32600
" />
<path d="M49700 32600
L50300 32600
" />
<path d="M50300 32600
L50300 32200
" />
<circle cx="50300" cy="29350" r="50" /> 
<path d="M50300 29800
L50300 29400
" />
<path d="M50300 29400
L49700 29400
" />
<path d="M49700 29400
L49700 29800
" />
<path d="M49700 30200
L49700 30600
" />
<path d="M49700 30600
L50300 30600
" />
<path d="M50300 30600
L50300 30200
" />
<circle cx="45300" cy="29350" r="50" /> 
<path d="M45300 29800
L45300 29400
" />
<path d="M45300 29400
L44700 29400
" />
<path d="M44700 29400
L44700 29800
" />
<path d="M44700 30200
L44700 30600
" />
<path d="M44700 30600
L45300 30600
" />
<path d="M45300 30600
L45300 30200
" />
</g>
<g style="fill:#9F009F; fill-opacity:0.0; 
stroke:#9F009F; stroke-width:26; stroke-opacity:1; 
stroke-linecap:round; stroke-linejoin:round;">
<path d="M41530 37930
L41530 38270
" />
<path d="M41530 38270
L40390 38270
" />
<path d="M40390 37930
L40390 38270
" />
<path d="M41530 37930
L40390 37930
" />
<path d="M41530 39730
L41530 40070
" />
<path d="M41530 40070
L40390 40070
" />
<path d="M40390 39730
L40390 40070
" />
<path d="M41530 39730
L40390 39730
" />
<path d="M40690 38830
L40690 39170
" />
<path d="M40690 39170
L40390 39170
" />
<path d="M40390 38830
L40390 39170
" />
<path d="M40690 38830
L40390 38830
" />
</g>
<g style="fill:#9F009F; fill-opacity:0.0; 
stroke:#9F009F; stroke-width:80; stroke-opacity:1; 
stroke-linecap:round; stroke-linejoin:round;">
<path d="M37990 40290
L40350 40290
" />
<path d="M40350 40290
L40350 37710
" />
<path d="M40350 37710
L37990 37710
" />
<path d="M37991 37710
L37991 40290
" />
</g>
<g style="fill:#9F009F; fill-opacity:0.0; 
stroke:#9F009F; stroke-width:20; stroke-opacity:1; 
stroke-linecap:round; stroke-linejoin:round;">
<path d="M37145 37436
L37145 40564
" />
<path d="M41855 40564
L41855 37436
" />
<path d="M41855 37436
L37145 37436
" />
<path d="M37145 40564
L41855 40564
" />
</g>
<g style="fill:#9F009F; fill-opacity:0.0; 
stroke:#9F009F; stroke-width:80; stroke-opacity:1; 
stroke-linecap:round; stroke-linejoin:round;">
<path d="M37950 37990
L37670 37990
" />
<path d="M37670 37990
L37490 38170
" />
<path d="M37490 38170
L37490 39830
" />
<path d="M37490 39830
L37670 40010
" />
<path d="M37670 40010
L37950 40010
" />
<path d="M37950 40010
L37950 37990
" />
</g>
<g style="fill:#9F009F; fill-opacity:0.0; 
stroke:#9F009F; stroke-width:78; stroke-opacity:1; 
stroke-linecap:round; stroke-linejoin:round;">
<path d="M37950 37990
L37670 37990
" />
<path d="M37670 37990
L37490 38170
" />
<path d="M37490 38170
L37490 39830
" />
<path d="M37490 39830
L37670 40010
" />
<path d="M37670 40010
L37950 40010
" />
<path d="M37950 40010
L37950 37990
" />
</g> 
</svg>
