G04 (created by PCBNEW (2013-may-18)-stable) date Tue Apr 15 11:28:34 2014*
%MOIN*%
G04 Gerber Fmt 3.4, Leading zero omitted, Abs format*
%FSLAX34Y34*%
G01*
G70*
G90*
G04 APERTURE LIST*
%ADD10C,0.00590551*%
%ADD11C,0.015*%
%ADD12O,0.1187X0.0593*%
%ADD13R,0.0551X0.0236*%
%ADD14R,0.055X0.035*%
%ADD15O,0.0709X0.0512*%
%ADD16O,0.0512X0.0709*%
%ADD17R,0.1X0.1*%
%ADD18C,0.1*%
%ADD19R,0.0629X0.0393*%
%ADD20R,0.244X0.2125*%
%ADD21C,0.1181*%
%ADD22C,0.0394*%
%ADD23C,0.0984*%
%ADD24C,0.0591*%
%ADD25C,0.008*%
G04 APERTURE END LIST*
G54D10*
G54D11*
X35500Y-42500D02*
G75*
G03X35500Y-42500I0J0D01*
G74*
G01*
X35499Y-42500D02*
X35500Y-42500D01*
X35500Y-42499D02*
X35500Y-42500D01*
X59500Y-42500D02*
X35500Y-42500D01*
X59500Y-25500D02*
X59500Y-42500D01*
X35500Y-25500D02*
X59500Y-25500D01*
X35500Y-42500D02*
X35500Y-25500D01*
G54D12*
X57000Y-29500D03*
X57000Y-30500D03*
X57000Y-31500D03*
X57000Y-32500D03*
X57000Y-33500D03*
X57000Y-34500D03*
G54D13*
X55050Y-28750D03*
X52950Y-28750D03*
X55050Y-28250D03*
X55050Y-27750D03*
X55050Y-27250D03*
X52950Y-28250D03*
X52950Y-27750D03*
X52950Y-27250D03*
X55050Y-31250D03*
X52950Y-31250D03*
X55050Y-30750D03*
X55050Y-30250D03*
X55050Y-29750D03*
X52950Y-30750D03*
X52950Y-30250D03*
X52950Y-29750D03*
X55050Y-33750D03*
X52950Y-33750D03*
X55050Y-33250D03*
X55050Y-32750D03*
X55050Y-32250D03*
X52950Y-33250D03*
X52950Y-32750D03*
X52950Y-32250D03*
X55050Y-36250D03*
X52950Y-36250D03*
X55050Y-35750D03*
X55050Y-35250D03*
X55050Y-34750D03*
X52950Y-35750D03*
X52950Y-35250D03*
X52950Y-34750D03*
X39950Y-34750D03*
X42050Y-34750D03*
X39950Y-35250D03*
X39950Y-35750D03*
X39950Y-36250D03*
X42050Y-35250D03*
X42050Y-35750D03*
X42050Y-36250D03*
X39950Y-32250D03*
X42050Y-32250D03*
X39950Y-32750D03*
X39950Y-33250D03*
X39950Y-33750D03*
X42050Y-32750D03*
X42050Y-33250D03*
X42050Y-33750D03*
X39950Y-29750D03*
X42050Y-29750D03*
X39950Y-30250D03*
X39950Y-30750D03*
X39950Y-31250D03*
X42050Y-30250D03*
X42050Y-30750D03*
X42050Y-31250D03*
X39950Y-27250D03*
X42050Y-27250D03*
X39950Y-27750D03*
X39950Y-28250D03*
X39950Y-28750D03*
X42050Y-27750D03*
X42050Y-28250D03*
X42050Y-28750D03*
G54D14*
X45000Y-31625D03*
X45000Y-32375D03*
X45000Y-33625D03*
X45000Y-34375D03*
X45000Y-36375D03*
X45000Y-35625D03*
X50000Y-36375D03*
X50000Y-35625D03*
X50000Y-33625D03*
X50000Y-34375D03*
X50000Y-31625D03*
X50000Y-32375D03*
X50000Y-29625D03*
X50000Y-30375D03*
X45000Y-29625D03*
X45000Y-30375D03*
G54D12*
X38000Y-34500D03*
X38000Y-33500D03*
X38000Y-32500D03*
X38000Y-31500D03*
X38000Y-30500D03*
X38000Y-29500D03*
G54D15*
X51500Y-39000D03*
X51500Y-38000D03*
X51500Y-37000D03*
X51500Y-36000D03*
X51500Y-35000D03*
X51500Y-34000D03*
X51500Y-33000D03*
X51500Y-32000D03*
X51500Y-31000D03*
X51500Y-30000D03*
X51500Y-29000D03*
X51500Y-28000D03*
X43500Y-28000D03*
X43500Y-29000D03*
X43500Y-30000D03*
X43500Y-31000D03*
X43500Y-32000D03*
X43500Y-33000D03*
X43500Y-34000D03*
X43500Y-35000D03*
X43500Y-36000D03*
X43500Y-37000D03*
X43500Y-38000D03*
X43500Y-39000D03*
X43500Y-40000D03*
G54D16*
X50250Y-40250D03*
X49250Y-40250D03*
X48250Y-40250D03*
X47250Y-40250D03*
X46250Y-40250D03*
X45250Y-40250D03*
G54D17*
X54000Y-39500D03*
G54D18*
X56000Y-39500D03*
G54D19*
X41389Y-38103D03*
X41389Y-39897D03*
G54D20*
X38516Y-39000D03*
G54D21*
X58500Y-37000D02*
X58500Y-34500D01*
X56000Y-39500D02*
X58500Y-37000D01*
X56000Y-39500D02*
X56000Y-40500D01*
X55000Y-41500D02*
X40500Y-41500D01*
X56000Y-40500D02*
X55000Y-41500D01*
X36500Y-29500D02*
X36511Y-29511D01*
X58500Y-34500D02*
X58000Y-34500D01*
G54D22*
X41389Y-38103D02*
X41389Y-38111D01*
G54D21*
X58489Y-29511D02*
X57000Y-29511D01*
X36500Y-41500D02*
X36500Y-34500D01*
G54D22*
X40500Y-39000D02*
X40500Y-41500D01*
G54D21*
X58500Y-34500D02*
X58500Y-29500D01*
X38000Y-29511D02*
X38000Y-29500D01*
X57000Y-29511D02*
X57000Y-29500D01*
X58500Y-29500D02*
X58489Y-29511D01*
X40500Y-41500D02*
X36500Y-41500D01*
X57000Y-34500D02*
X58500Y-34500D01*
X36511Y-29511D02*
X38000Y-29511D01*
X38000Y-34500D02*
X36500Y-34500D01*
X58000Y-34500D02*
X58500Y-34500D01*
G54D22*
X41389Y-38111D02*
X40500Y-39000D01*
G54D21*
X36500Y-34500D02*
X36500Y-29500D01*
G54D22*
X41389Y-39897D02*
X41826Y-39897D01*
X49795Y-28000D02*
X51500Y-28000D01*
X47598Y-30197D02*
X49795Y-28000D01*
X47598Y-36929D02*
X47598Y-30197D01*
X43917Y-40610D02*
X47598Y-36929D01*
X42539Y-40610D02*
X43917Y-40610D01*
X41826Y-39897D02*
X42539Y-40610D01*
G54D23*
X54000Y-39500D02*
X54000Y-36250D01*
G54D22*
X41000Y-35750D02*
X41250Y-35750D01*
X53700Y-33750D02*
X54000Y-33750D01*
X41000Y-33250D02*
X41250Y-33250D01*
X41350Y-30750D02*
X41000Y-30750D01*
X52950Y-35250D02*
X54000Y-35250D01*
X42050Y-33250D02*
X41000Y-33250D01*
X54000Y-30250D02*
X53750Y-30250D01*
G54D23*
X41000Y-36950D02*
X41000Y-35250D01*
G54D22*
X54000Y-35250D02*
X53750Y-35250D01*
X51500Y-29000D02*
X52700Y-29000D01*
X52700Y-29000D02*
X52950Y-28750D01*
X52950Y-33750D02*
X54000Y-33750D01*
X53650Y-28250D02*
X54000Y-28250D01*
G54D23*
X54000Y-33250D02*
X54000Y-32750D01*
G54D22*
X53700Y-35750D02*
X54000Y-35750D01*
X54000Y-35750D02*
X53700Y-35750D01*
X54000Y-32750D02*
X53650Y-32750D01*
X53650Y-32750D02*
X54000Y-32750D01*
X52950Y-31250D02*
X54000Y-31250D01*
X54000Y-31250D02*
X53600Y-31250D01*
X52950Y-28750D02*
X54000Y-28750D01*
X41250Y-33250D02*
X41000Y-33250D01*
X53750Y-27750D02*
X54000Y-27750D01*
X53600Y-30750D02*
X54000Y-30750D01*
X52950Y-36250D02*
X54000Y-36250D01*
X52950Y-33250D02*
X54000Y-33250D01*
G54D23*
X54000Y-30750D02*
X54000Y-30250D01*
G54D22*
X41050Y-34700D02*
X41350Y-34700D01*
X53600Y-28700D02*
X54000Y-28700D01*
X53950Y-28700D02*
X53600Y-28700D01*
X53750Y-30250D02*
X54000Y-30250D01*
X52950Y-27750D02*
X54000Y-27750D01*
X41000Y-32750D02*
X41250Y-32750D01*
X42050Y-35250D02*
X41000Y-35250D01*
X42050Y-35750D02*
X41000Y-35750D01*
X54000Y-28250D02*
X53650Y-28250D01*
X41350Y-34700D02*
X41000Y-34700D01*
X52950Y-28250D02*
X54000Y-28250D01*
X53600Y-31250D02*
X54000Y-31250D01*
X41000Y-27250D02*
X41050Y-27250D01*
X54000Y-27750D02*
X53750Y-27750D01*
G54D23*
X38950Y-39000D02*
X41000Y-36950D01*
G54D22*
X41000Y-34750D02*
X41050Y-34700D01*
X53700Y-33250D02*
X54000Y-33250D01*
X54000Y-33250D02*
X53700Y-33250D01*
X41000Y-35250D02*
X41250Y-35250D01*
X54000Y-30750D02*
X53600Y-30750D01*
X52950Y-35750D02*
X54000Y-35750D01*
G54D23*
X38516Y-39000D02*
X38950Y-39000D01*
G54D22*
X52950Y-30250D02*
X54000Y-30250D01*
X53750Y-36250D02*
X54000Y-36250D01*
X54000Y-33750D02*
X53700Y-33750D01*
X54000Y-28750D02*
X53950Y-28700D01*
X41250Y-35750D02*
X41000Y-35750D01*
X52950Y-32750D02*
X54000Y-32750D01*
X41000Y-28250D02*
X41300Y-28250D01*
X41100Y-27750D02*
X41000Y-27750D01*
X42050Y-28250D02*
X41000Y-28250D01*
G54D23*
X41000Y-26400D02*
X41000Y-27250D01*
X41000Y-30750D02*
X41000Y-32250D01*
G54D22*
X42050Y-29750D02*
X41000Y-29750D01*
X41250Y-29750D02*
X41000Y-29750D01*
X41000Y-29750D02*
X41250Y-29750D01*
X41050Y-27250D02*
X41000Y-27250D01*
G54D23*
X54000Y-27750D02*
X54000Y-26400D01*
G54D22*
X41000Y-32250D02*
X41250Y-32250D01*
X42050Y-30750D02*
X41000Y-30750D01*
G54D23*
X41000Y-36950D02*
X40750Y-37200D01*
G54D22*
X54000Y-36250D02*
X53750Y-36250D01*
X41300Y-28250D02*
X41000Y-28250D01*
X42050Y-34750D02*
X41000Y-34750D01*
G54D23*
X54000Y-36250D02*
X54000Y-35750D01*
X41000Y-27750D02*
X41000Y-28250D01*
G54D22*
X42050Y-30250D02*
X41000Y-30250D01*
X41250Y-35250D02*
X41000Y-35250D01*
X42050Y-27250D02*
X41000Y-27250D01*
X41000Y-27750D02*
X41100Y-27750D01*
X52950Y-30750D02*
X54000Y-30750D01*
G54D23*
X54000Y-35750D02*
X54000Y-35250D01*
X41000Y-28250D02*
X41000Y-29750D01*
G54D22*
X41250Y-32250D02*
X41000Y-32250D01*
X41000Y-30250D02*
X41250Y-30250D01*
X41250Y-30250D02*
X41000Y-30250D01*
X41250Y-32750D02*
X41000Y-32750D01*
G54D23*
X54000Y-31250D02*
X54000Y-30750D01*
G54D22*
X42050Y-27750D02*
X41000Y-27750D01*
X41000Y-30750D02*
X41350Y-30750D01*
G54D23*
X54000Y-28700D02*
X54000Y-28250D01*
X54000Y-28250D02*
X54000Y-27750D01*
G54D22*
X42050Y-32750D02*
X41000Y-32750D01*
G54D23*
X54000Y-32750D02*
X54000Y-31250D01*
X54000Y-35250D02*
X54000Y-33750D01*
X54000Y-33750D02*
X54000Y-33250D01*
X54000Y-26400D02*
X52700Y-26400D01*
G54D22*
X42050Y-32250D02*
X41000Y-32250D01*
X53750Y-35250D02*
X54000Y-35250D01*
G54D23*
X41000Y-30250D02*
X41000Y-30750D01*
X41000Y-35250D02*
X41000Y-35750D01*
X41000Y-32750D02*
X41000Y-33250D01*
X41000Y-27250D02*
X41000Y-27750D01*
X41000Y-34700D02*
X41000Y-35250D01*
X41000Y-33250D02*
X41000Y-34700D01*
X41000Y-29750D02*
X41000Y-30250D01*
X52700Y-26400D02*
X41000Y-26400D01*
X41000Y-32250D02*
X41000Y-32750D01*
X54000Y-30250D02*
X54000Y-28700D01*
X41000Y-35750D02*
X41000Y-36950D01*
G54D24*
X39950Y-30750D02*
X39950Y-31250D01*
X39950Y-29750D02*
X39950Y-30250D01*
X39200Y-31500D02*
X39950Y-30750D01*
X39950Y-30250D02*
X39950Y-30750D01*
X38000Y-31500D02*
X39200Y-31500D01*
X57000Y-31500D02*
X56000Y-31500D01*
X55050Y-30750D02*
X55050Y-31250D01*
X55050Y-30550D02*
X55050Y-30750D01*
X55050Y-29750D02*
X55050Y-30250D01*
X56000Y-31500D02*
X55050Y-30550D01*
X55050Y-30250D02*
X55050Y-30550D01*
X55211Y-34750D02*
X55050Y-34750D01*
X55050Y-34750D02*
X55050Y-35250D01*
X57000Y-33500D02*
X56461Y-33500D01*
X55050Y-35750D02*
X55050Y-36250D01*
X55050Y-35250D02*
X55050Y-35750D01*
X56461Y-33500D02*
X55211Y-34750D01*
X39950Y-33250D02*
X39950Y-33750D01*
X38000Y-32500D02*
X39700Y-32500D01*
X39950Y-32750D02*
X39950Y-33250D01*
X39950Y-32250D02*
X39950Y-32750D01*
X39700Y-32500D02*
X39950Y-32750D01*
G54D25*
X51500Y-33000D02*
X51409Y-33000D01*
X50123Y-35625D02*
X50000Y-35625D01*
X50748Y-35000D02*
X50123Y-35625D01*
X50748Y-33661D02*
X50748Y-35000D01*
X51409Y-33000D02*
X50748Y-33661D01*
X50000Y-29625D02*
X50454Y-29625D01*
X50866Y-28741D02*
X51103Y-28504D01*
X50866Y-29213D02*
X50866Y-28741D01*
X50454Y-29625D02*
X50866Y-29213D01*
X52244Y-28229D02*
X51969Y-28504D01*
X51969Y-28504D02*
X51103Y-28504D01*
X52593Y-27250D02*
X52244Y-27599D01*
X52244Y-27599D02*
X52244Y-28229D01*
X52950Y-27250D02*
X52593Y-27250D01*
X52323Y-32323D02*
X52322Y-32323D01*
X50115Y-33625D02*
X50000Y-33625D01*
X50629Y-33110D02*
X50115Y-33625D01*
X50629Y-32874D02*
X50629Y-33110D01*
X51023Y-32480D02*
X50629Y-32874D01*
X52165Y-32480D02*
X51023Y-32480D01*
X52322Y-32323D02*
X52165Y-32480D01*
X52950Y-32250D02*
X52396Y-32250D01*
X52396Y-32250D02*
X52323Y-32323D01*
X50000Y-31625D02*
X50737Y-31625D01*
X52244Y-31102D02*
X52244Y-29961D01*
X51850Y-31496D02*
X52244Y-31102D01*
X50866Y-31496D02*
X51850Y-31496D01*
X50737Y-31625D02*
X50866Y-31496D01*
X52950Y-29750D02*
X52455Y-29750D01*
X52455Y-29750D02*
X52244Y-29961D01*
X52950Y-34750D02*
X52336Y-34750D01*
X50669Y-35867D02*
X50669Y-36260D01*
X52126Y-34960D02*
X52126Y-35315D01*
X52126Y-35315D02*
X51929Y-35512D01*
X50554Y-36375D02*
X50000Y-36375D01*
X51024Y-35512D02*
X50669Y-35867D01*
X52336Y-34750D02*
X52126Y-34960D01*
X50669Y-36260D02*
X50554Y-36375D01*
X51929Y-35512D02*
X51024Y-35512D01*
X42050Y-28750D02*
X42530Y-28750D01*
X44507Y-29625D02*
X45000Y-29625D01*
X44370Y-29488D02*
X44507Y-29625D01*
X42913Y-29488D02*
X44370Y-29488D01*
X42756Y-29331D02*
X42913Y-29488D01*
X42756Y-28976D02*
X42756Y-29331D01*
X42530Y-28750D02*
X42756Y-28976D01*
X45906Y-36890D02*
X45906Y-31654D01*
X45000Y-30748D02*
X45000Y-30375D01*
X43796Y-39000D02*
X45906Y-36890D01*
X45906Y-31654D02*
X45000Y-30748D01*
X43500Y-39000D02*
X43796Y-39000D01*
X42050Y-31250D02*
X42588Y-31250D01*
X44420Y-31625D02*
X45000Y-31625D01*
X44291Y-31496D02*
X44420Y-31625D01*
X42834Y-31496D02*
X44291Y-31496D01*
X42588Y-31250D02*
X42834Y-31496D01*
X43500Y-38000D02*
X44502Y-38000D01*
X45000Y-32599D02*
X45000Y-32375D01*
X45709Y-33308D02*
X45000Y-32599D01*
X45709Y-36793D02*
X45709Y-33308D01*
X44502Y-38000D02*
X45709Y-36793D01*
X42874Y-33504D02*
X44252Y-33504D01*
X44252Y-33504D02*
X44373Y-33625D01*
X42628Y-33750D02*
X42874Y-33504D01*
X42050Y-33750D02*
X42628Y-33750D01*
X44373Y-33625D02*
X45000Y-33625D01*
X43500Y-37000D02*
X45244Y-37000D01*
X45000Y-34764D02*
X45000Y-34375D01*
X45512Y-35276D02*
X45000Y-34764D01*
X45512Y-36732D02*
X45512Y-35276D01*
X45244Y-37000D02*
X45512Y-36732D01*
X42549Y-36250D02*
X42795Y-36496D01*
X42050Y-36250D02*
X42549Y-36250D01*
X42795Y-36496D02*
X44291Y-36496D01*
X44291Y-36496D02*
X44412Y-36375D01*
X44412Y-36375D02*
X45000Y-36375D01*
X43500Y-36000D02*
X44000Y-36000D01*
X44375Y-35625D02*
X45000Y-35625D01*
X44000Y-36000D02*
X44375Y-35625D01*
X50000Y-30375D02*
X50000Y-30788D01*
X49094Y-36850D02*
X50244Y-38000D01*
X49094Y-31694D02*
X49094Y-36850D01*
X50000Y-30788D02*
X49094Y-31694D01*
X51500Y-38000D02*
X50244Y-38000D01*
X50000Y-32375D02*
X50000Y-32835D01*
X49306Y-36786D02*
X49607Y-37087D01*
X49306Y-33529D02*
X49306Y-36786D01*
X50000Y-32835D02*
X49306Y-33529D01*
X50866Y-37087D02*
X49607Y-37087D01*
X51500Y-37000D02*
X50953Y-37000D01*
X50953Y-37000D02*
X50866Y-37087D01*
X50000Y-34375D02*
X49917Y-34375D01*
X49488Y-36693D02*
X49645Y-36850D01*
X49488Y-34804D02*
X49488Y-36693D01*
X49917Y-34375D02*
X49488Y-34804D01*
X50650Y-36850D02*
X51500Y-36000D01*
X49645Y-36850D02*
X50650Y-36850D01*
G54D24*
X38400Y-33500D02*
X39150Y-34250D01*
X39950Y-35050D02*
X39150Y-34250D01*
X39950Y-35750D02*
X39950Y-36310D01*
X39950Y-35050D02*
X39950Y-35250D01*
X38000Y-33500D02*
X38400Y-33500D01*
X39950Y-35250D02*
X39950Y-35750D01*
X39950Y-36310D02*
X39950Y-36250D01*
X39950Y-34750D02*
X39950Y-35250D01*
X55050Y-32250D02*
X55050Y-32750D01*
X57000Y-32500D02*
X55300Y-32500D01*
X55050Y-32750D02*
X55050Y-33250D01*
X55050Y-33250D02*
X55050Y-33750D01*
X55300Y-32500D02*
X55050Y-32750D01*
X55050Y-27750D02*
X55050Y-28250D01*
X55866Y-30000D02*
X55866Y-29066D01*
X55050Y-28250D02*
X55050Y-28750D01*
X55866Y-29066D02*
X55050Y-28250D01*
X55050Y-27250D02*
X55050Y-27750D01*
X56366Y-30500D02*
X55866Y-30000D01*
X57000Y-30500D02*
X56366Y-30500D01*
X39950Y-27750D02*
X39950Y-28250D01*
X39134Y-29066D02*
X39950Y-28250D01*
X38477Y-30500D02*
X39134Y-29843D01*
X39950Y-27250D02*
X39950Y-27750D01*
X39134Y-29843D02*
X39134Y-29066D01*
X39950Y-28250D02*
X39950Y-28750D01*
X38000Y-30500D02*
X38477Y-30500D01*
M02*
